<svg width="100" height="150" viewBox="0 0 100 150" fill="none" xmlns="http://www.w3.org/2000/svg">
<g clip-path="url(#clip0_23_80)">
<path d="M10.5296 116.8C10.2954 118.954 9.65196 123.714 9.62693 123.786C9.40886 124.426 8.54017 124.156 8.63669 123.512C8.77075 122.611 8.89587 121.71 9.01563 120.808C8.33104 120.808 7.64645 120.808 6.96007 120.806C6.85283 121.619 6.56863 123.711 6.5436 123.782C6.32553 124.422 5.45684 124.152 5.55336 123.509C5.68742 122.608 5.81254 121.707 5.9323 120.802H5.62486C4.96172 120.802 4.96351 119.775 5.62486 119.775C5.77143 119.775 5.91979 119.775 6.06636 119.775C6.19148 118.783 6.31123 117.789 6.41848 116.793C6.48998 116.143 7.51775 116.137 7.44626 116.793C7.33722 117.789 7.21925 118.783 7.09413 119.775C7.77872 119.775 8.4651 119.776 9.14969 119.776C9.27481 118.784 9.39278 117.791 9.50181 116.797C9.57331 116.146 10.6011 116.141 10.5296 116.797" fill="#F0BB67"/>
<path d="M16.9839 121.82C16.4119 122.894 15.4931 124.174 14.1007 123.834C13.7111 123.737 13.4394 123.559 13.2553 123.323C12.7727 123.723 12.131 123.916 11.5125 123.677C10.7278 123.371 10.474 122.597 10.6599 121.818C10.8404 121.056 11.3928 120.359 12.1077 120.036C12.5617 119.832 13.0765 119.818 13.4984 120.011C13.5359 119.921 13.5734 119.837 13.6092 119.757C13.8845 119.156 14.7692 119.678 14.4958 120.275C14.2473 120.819 14.0882 121.45 13.9774 122.036C13.8898 122.497 14.0042 122.803 14.485 122.863C14.6405 122.883 14.8979 122.81 15.0981 122.66C15.545 122.324 15.8345 121.78 16.0919 121.298C16.403 120.713 17.2895 121.233 16.9785 121.816M13.1498 120.983C12.6761 120.506 11.8253 121.532 11.6877 121.968C11.5822 122.306 11.5804 122.695 12.0094 122.754C12.3705 122.804 12.6601 122.515 12.8656 122.256C12.8906 122.225 12.9174 122.199 12.9443 122.175C12.9532 121.789 13.0354 121.376 13.1516 120.983" fill="#F0BB67"/>
<path d="M21.1399 121.819C20.7466 122.575 20.2443 123.625 19.3506 123.878C18.4748 124.129 17.8706 123.455 17.9117 122.622C17.9296 122.248 18.0261 121.884 18.0494 121.51C18.0637 121.278 18.0369 121.081 17.9582 121.008C17.9243 120.976 17.8796 120.952 17.7902 121.013C17.4309 121.26 17.2343 121.737 17.0788 122.125C17.0627 122.168 17.0395 122.205 17.0162 122.241C16.9269 122.684 16.8232 123.126 16.707 123.566C16.5372 124.205 15.547 123.932 15.7168 123.292C15.9742 122.323 16.1744 121.342 16.3013 120.348C16.3728 119.796 17.1306 119.71 17.3004 120.103C17.4506 120.023 17.615 119.971 17.7973 119.959C18.3586 119.921 18.8591 120.291 19.02 120.827C19.1361 121.219 19.0718 121.641 19.0146 122.036C18.9914 122.195 18.8448 122.806 18.9502 122.899C19.272 123.181 20.1264 121.546 20.2533 121.299C20.5589 120.711 21.4455 121.231 21.1416 121.817" fill="#F0BB67"/>
<path d="M26.4968 121.819C25.9231 122.893 25.0043 124.173 23.6137 123.834C23.2169 123.737 22.9327 123.54 22.7325 123.281C22.2445 123.71 21.5796 123.925 20.9415 123.678C20.1568 123.374 19.903 122.598 20.0889 121.821C20.2712 121.059 20.8217 120.362 21.5367 120.039C21.8441 119.899 22.1784 119.851 22.493 119.891C22.5806 119.072 22.6878 118.251 22.9023 117.465C23.0846 116.804 23.4135 116.071 24.1392 115.878C25.4583 115.527 25.957 117.077 25.5745 118.082C25.0937 119.338 24.309 120.416 23.4171 121.41C23.3974 121.431 23.3778 121.449 23.3581 121.467C23.3545 121.565 23.3527 121.665 23.3581 121.766C23.3778 122.246 23.4064 122.758 23.9426 122.858C24.1374 122.893 24.3877 122.836 24.6129 122.665C25.0597 122.325 25.3493 121.787 25.6067 121.303C25.9195 120.718 26.8061 121.238 26.495 121.821M22.3875 120.87C21.9049 120.747 21.2346 121.583 21.1149 121.966C21.0094 122.305 21.0076 122.693 21.4348 122.752C21.7977 122.802 22.0854 122.513 22.291 122.255C22.3089 122.234 22.3267 122.214 22.3464 122.196C22.2999 121.773 22.3267 121.313 22.3875 120.87ZM23.6244 119.524C23.9408 119.077 24.2214 118.605 24.4502 118.098C24.5878 117.792 24.8721 117.259 24.6057 116.938C24.4913 116.8 24.3769 116.845 24.259 116.947C24.2768 116.931 24.1893 117.034 24.1624 117.072C24.1052 117.158 24.0588 117.254 24.0212 117.349C23.905 117.633 23.8389 117.944 23.7799 118.246C23.7013 118.641 23.6173 119.494 23.628 119.524" fill="#F0BB67"/>
<path d="M32.9886 121.968C32.6222 122.792 31.6212 124.134 30.5666 123.807C29.151 123.367 29.7301 121.376 30.025 120.395C30.2145 119.762 31.2065 120.034 31.0153 120.668C30.8866 121.097 30.7436 121.533 30.6935 121.978C30.6757 122.144 30.6095 122.765 30.8741 122.829C31.1011 122.884 31.4693 122.405 31.5855 122.264C31.791 122.018 31.9716 121.741 32.102 121.447C32.3702 120.843 33.2567 121.367 32.9904 121.966M30.7239 118.636C31.3853 118.636 31.3853 119.664 30.7239 119.664C30.0626 119.664 30.0626 118.636 30.7239 118.636Z" fill="#F0BB67"/>
<path d="M37.1713 121.819C36.7781 122.575 36.2758 123.625 35.3821 123.878C34.5063 124.129 33.9021 123.455 33.9432 122.622C33.9611 122.248 34.0576 121.884 34.0809 121.51C34.0952 121.278 34.0684 121.081 33.9897 121.008C33.9557 120.976 33.9093 120.952 33.8217 121.013C33.4624 121.26 33.2658 121.737 33.1103 122.125C33.0924 122.168 33.071 122.205 33.0477 122.241C32.9566 122.684 32.8547 123.126 32.7385 123.566C32.5687 124.205 31.5785 123.932 31.7483 123.292C32.0057 122.323 32.2058 121.342 32.3328 120.348C32.4043 119.796 33.1621 119.71 33.3319 120.103C33.4821 120.023 33.6465 119.971 33.8288 119.959C34.3901 119.921 34.8906 120.291 35.0514 120.827C35.1676 121.219 35.1033 121.641 35.0461 122.036C35.0228 122.195 34.8763 122.806 34.9817 122.899C35.3035 123.181 36.1579 121.546 36.2848 121.299C36.5904 120.711 37.477 121.231 37.1731 121.817" fill="#F0BB67"/>
<path d="M45.6346 116.8C45.4004 118.954 44.7569 123.714 44.7319 123.786C44.5138 124.426 43.6452 124.156 43.7417 123.512C43.8757 122.611 44.0009 121.71 44.1206 120.808C43.436 120.808 42.7514 120.808 42.0668 120.806C41.9596 121.619 41.6754 123.711 41.6504 123.782C41.4323 124.422 40.5636 124.152 40.6583 123.509C40.7924 122.608 40.9175 121.707 41.0373 120.802H40.7298C40.0667 120.802 40.0685 119.775 40.7298 119.775C40.8764 119.775 41.0248 119.775 41.1713 119.775C41.2982 118.783 41.4162 117.789 41.5235 116.793C41.595 116.143 42.6227 116.137 42.5512 116.793C42.4422 117.789 42.3242 118.783 42.1991 119.775C42.8837 119.775 43.5701 119.776 44.2547 119.776C44.3798 118.784 44.4995 117.791 44.6068 116.797C44.6783 116.146 45.7061 116.141 45.6346 116.797" fill="#F0BB67"/>
<path d="M52.0892 121.82C51.5172 122.894 50.5985 124.174 49.2078 123.834C48.8182 123.737 48.5447 123.559 48.3624 123.323C47.878 123.723 47.2381 123.916 46.6214 123.677C45.8367 123.371 45.5829 122.597 45.7688 121.818C45.9511 121.056 46.5017 120.359 47.2166 120.036C47.6706 119.832 48.1836 119.818 48.6073 120.011C48.6448 119.921 48.6823 119.837 48.7181 119.757C48.9933 119.156 49.8781 119.678 49.6064 120.275C49.358 120.819 49.1989 121.45 49.0881 122.036C49.0005 122.497 49.1149 122.803 49.5957 122.863C49.7512 122.883 50.0086 122.81 50.2088 122.66C50.6557 122.324 50.9452 121.78 51.2044 121.298C51.5154 120.713 52.402 121.233 52.091 121.816M48.2533 120.983C47.7797 120.506 46.9288 121.532 46.7912 121.968C46.6858 122.306 46.684 122.695 47.113 122.754C47.4758 122.804 47.7636 122.515 47.9691 122.256C47.9942 122.225 48.021 122.199 48.0478 122.175C48.0567 121.789 48.1389 121.376 48.2551 120.983" fill="#F0BB67"/>
<path d="M56.2449 121.819C55.8499 122.575 55.3494 123.625 54.4539 123.878C53.5781 124.129 52.9757 123.455 53.0168 122.622C53.0347 122.248 53.1312 121.884 53.1545 121.51C53.1688 121.278 53.1402 121.081 53.0633 121.008C53.0293 120.976 52.9829 120.952 52.8953 121.013C52.536 121.26 52.3394 121.737 52.1839 122.125C52.166 122.168 52.1446 122.205 52.1213 122.241C52.0319 122.684 51.9283 123.126 51.8139 123.566C51.6441 124.205 50.6538 123.932 50.8218 123.292C51.0792 122.323 51.2794 121.342 51.4063 120.348C51.4778 119.796 52.2357 119.71 52.4055 120.103C52.5557 120.023 52.7201 119.971 52.9042 119.959C53.4637 119.921 53.966 120.291 54.125 120.827C54.2412 121.219 54.1769 121.641 54.1197 122.036C54.0964 122.195 53.9499 122.806 54.0553 122.899C54.3771 123.181 55.2315 121.546 55.3584 121.299C55.664 120.711 56.5506 121.231 56.2467 121.817" fill="#F0BB67"/>
<path d="M61.6004 121.819C61.0284 122.893 60.1096 124.173 58.7172 123.834C58.3204 123.737 58.0344 123.54 57.836 123.281C57.348 123.71 56.6831 123.925 56.045 123.678C55.2603 123.374 55.0065 122.598 55.1924 121.821C55.3729 121.059 55.9252 120.362 56.6402 120.039C56.9477 119.899 57.2819 119.851 57.5965 119.891C57.6841 119.072 57.7913 118.251 58.0058 117.465C58.1881 116.804 58.517 116.071 59.2427 115.878C60.5601 115.527 61.0605 117.077 60.678 118.082C60.1972 119.338 59.4125 120.416 58.5206 121.41C58.5009 121.431 58.4813 121.449 58.4616 121.467C58.458 121.565 58.4562 121.665 58.4616 121.766C58.4813 122.246 58.5099 122.758 59.0461 122.858C59.2409 122.893 59.4912 122.836 59.7164 122.665C60.1615 122.325 60.4528 121.787 60.7102 121.303C61.0212 120.718 61.9096 121.238 61.5986 121.821M57.491 120.87C57.0084 120.747 56.3381 121.583 56.2184 121.966C56.1129 122.305 56.1111 122.693 56.5383 122.752C56.9012 122.802 57.189 122.513 57.3945 122.255C57.4124 122.234 57.4303 122.214 57.4499 122.196C57.4034 121.773 57.4303 121.313 57.491 120.87ZM58.7279 119.524C59.0443 119.077 59.3249 118.605 59.5555 118.098C59.6932 117.792 59.9774 117.259 59.7092 116.938C59.5948 116.8 59.4822 116.845 59.3625 116.947C59.3804 116.931 59.2928 117.034 59.266 117.072C59.2088 117.158 59.1623 117.254 59.123 117.349C59.0068 117.633 58.9406 117.944 58.8817 118.246C58.803 118.641 58.719 119.494 58.7297 119.524" fill="#F0BB67"/>
<path d="M68.094 121.968C67.7258 122.792 66.7267 124.134 65.6703 123.807C64.2564 123.367 64.8355 121.376 65.1287 120.395C65.3182 119.762 66.3102 120.034 66.1189 120.668C65.9902 121.097 65.8472 121.533 65.7972 121.978C65.7793 122.144 65.7132 122.765 65.9759 122.829C66.2029 122.884 66.5711 122.405 66.6873 122.264C66.8929 122.018 67.0734 121.741 67.2039 121.447C67.4738 120.843 68.3586 121.367 68.0923 121.966M65.8294 118.636C66.4925 118.636 66.4907 119.664 65.8294 119.664C65.168 119.664 65.168 118.636 65.8294 118.636Z" fill="#F0BB67"/>
<path d="M72.2766 121.819C71.8833 122.575 71.3811 123.625 70.4856 123.878C69.6097 124.129 69.0074 123.455 69.0485 122.622C69.0663 122.248 69.1629 121.884 69.1861 121.51C69.2004 121.278 69.1736 121.081 69.0949 121.008C69.061 120.976 69.0145 120.952 68.9269 121.013C68.5677 121.26 68.371 121.737 68.2137 122.125C68.1977 122.168 68.1744 122.205 68.1512 122.241C68.06 122.684 67.9581 123.126 67.842 123.566C67.6721 124.205 66.6819 123.932 66.8499 123.292C67.1073 122.323 67.3075 121.342 67.4344 120.348C67.5059 119.796 68.2638 119.71 68.4336 120.103C68.5837 120.023 68.7482 119.971 68.9323 119.959C69.4918 119.921 69.994 120.291 70.1531 120.827C70.2693 121.219 70.2049 121.641 70.1478 122.036C70.1245 122.195 69.9779 122.806 70.0834 122.899C70.4051 123.181 71.2595 121.546 71.3864 121.299C71.6921 120.711 72.5787 121.231 72.2748 121.817" fill="#F0BB67"/>
<path d="M80.74 116.8C80.5059 118.954 79.8624 123.714 79.8374 123.786C79.6193 124.426 78.7506 124.156 78.8471 123.512C78.9812 122.611 79.1063 121.71 79.2261 120.808C78.5415 120.808 77.8569 120.808 77.1723 120.806C77.0651 121.619 76.7809 123.711 76.7541 123.782C76.536 124.422 75.6673 124.152 75.7638 123.509C75.8979 122.608 76.023 121.707 76.1427 120.802H75.8353C75.1722 120.802 75.174 119.775 75.8353 119.775C75.9819 119.775 76.1302 119.775 76.2768 119.775C76.4019 118.783 76.5217 117.789 76.6307 116.793C76.7022 116.143 77.73 116.137 77.6585 116.793C77.5495 117.789 77.4315 118.783 77.3064 119.775C77.991 119.775 78.6755 119.776 79.3619 119.776C79.487 118.784 79.6068 117.791 79.7141 116.797C79.7855 116.146 80.8133 116.141 80.7418 116.797" fill="#F0BB67"/>
<path d="M86.0933 121.648C85.6286 122.282 84.8975 123.063 84.0503 123.11C83.607 123.782 82.8634 124.216 82.0108 123.918C81.017 123.569 80.5683 122.484 80.781 121.506C80.7846 121.48 80.79 121.451 80.7989 121.422C80.8079 121.388 80.8204 121.353 80.8311 121.319C80.8472 121.267 80.8651 121.217 80.8847 121.167C80.8865 121.161 80.8901 121.158 80.8901 121.154C81.2208 120.302 81.9161 119.572 82.9117 119.587C84.1361 119.605 84.5865 120.82 84.4828 121.876C84.7724 121.664 85.0512 121.342 85.2067 121.129C85.5928 120.6 86.4848 121.113 86.0933 121.648ZM83.001 122.795C82.522 122.466 82.1592 121.926 81.8857 121.412C81.8732 121.444 81.8589 121.478 81.8482 121.51C81.8464 121.517 81.8428 121.524 81.8392 121.531C81.8392 121.535 81.8392 121.537 81.8374 121.539C81.6783 122.037 81.7338 122.697 82.2825 122.927C82.5738 123.049 82.8152 122.968 83.001 122.795ZM82.6722 120.645C82.6722 120.645 82.6579 120.65 82.6507 120.652C82.8295 121.031 83.0904 121.564 83.4479 121.864C83.5319 121.294 83.4104 120.437 82.6722 120.645Z" fill="#F0BB67"/>
<path d="M91.009 121.648C90.5211 122.341 89.6953 122.965 88.8266 123.149C88.8087 123.176 88.789 123.201 88.7676 123.224C88.705 123.347 88.6353 123.464 88.5602 123.567C88.217 124.05 87.6379 124.438 87.0212 124.318C86.4064 124.198 85.9899 123.605 86.09 122.983C86.1794 122.42 86.5815 122.028 87.2429 121.975C87.4395 121.959 87.9579 122.05 88.058 122.075C88.058 122.075 88.0597 122.075 88.0615 122.075C88.1563 121.61 88.1741 121.001 87.6665 120.847C87.0463 120.659 86.51 121.245 86.1811 121.692C85.8826 123.482 85.5859 125.273 85.2874 127.062C85.1784 127.714 84.1882 127.435 84.2972 126.788C84.5903 125.026 85.2946 120.799 85.3375 120.538C85.4072 120.121 85.8362 120.085 86.1097 120.282C86.3134 120.121 86.5404 119.987 86.7942 119.901C87.3805 119.701 88.0705 119.769 88.5495 120.184C89.0464 120.611 89.1966 121.288 89.1322 121.966C89.5397 121.757 89.9062 121.43 90.1189 121.127C90.496 120.589 91.388 121.104 91.0072 121.646M87.6343 123.092C87.4395 122.974 87.0838 122.994 87.1017 123.178C87.1285 123.46 87.4842 123.237 87.5897 123.14C87.6057 123.126 87.62 123.108 87.6361 123.092" fill="#F0BB67"/>
<path d="M94.2996 121.819C93.8063 122.744 93.0538 123.911 91.8687 123.907C90.9285 123.904 90.2975 123.185 90.1474 122.295C89.9794 121.303 90.4584 119.828 91.5148 119.478C92.2673 119.228 93.1127 119.814 93.1163 120.615C93.1217 121.637 92.0492 122.059 91.2002 122.163C91.1859 122.163 91.1734 122.164 91.1591 122.164C91.202 122.399 91.2949 122.633 91.4683 122.769C91.5773 122.854 91.8204 122.895 91.9509 122.881C92.6391 122.808 93.1217 121.844 93.4095 121.303C93.7223 120.718 94.6088 121.238 94.2978 121.821M91.3164 121.115C91.5881 121.072 91.9152 120.974 92.0546 120.734C92.1225 120.622 92.11 120.55 92.0224 120.49C91.7561 120.305 91.488 120.7 91.3164 121.115Z" fill="#F0BB67"/>
<path d="M5.85352 16.5697C5.87854 16.2176 5.92144 15.8637 5.9268 15.5116C5.93753 14.7233 5.93038 13.9351 6.01438 13.145C6.07158 13.8743 6.12878 14.6018 6.18777 15.3311C6.33612 17.1739 6.48091 19.015 6.63999 20.856C6.67752 21.2904 6.94385 21.5442 7.39429 21.6175C7.58554 21.3583 7.58197 21.1313 7.40322 20.8703C7.31207 20.7381 7.29955 20.5504 7.25308 20.3877C7.2924 20.3716 7.32994 20.3555 7.36926 20.3395C7.72496 20.5897 8.09675 20.8203 8.42385 21.1027C8.51501 21.1813 8.5454 21.4673 8.47569 21.5656C8.29694 21.8141 8.28979 22.0304 8.42564 22.2806C8.4596 22.3432 8.5168 22.4165 8.50786 22.4754C8.43458 22.9295 8.75631 22.9223 9.0423 22.9241C9.17994 22.9241 9.41588 22.8812 9.43375 22.8151C9.47486 22.6542 9.4266 22.4647 9.38371 22.2949C9.36047 22.2055 9.25858 22.1376 9.21747 22.05C9.07805 21.739 9.10844 21.4941 9.4981 21.4155C9.63216 21.9481 9.75371 22.4772 9.8967 22.9992C10.0379 23.5157 9.84486 24.1181 10.2703 24.556C10.1809 24.7562 10.0272 24.9671 10.0111 25.1888C10.0022 25.3228 10.2274 25.6035 10.3114 25.5909C10.6564 25.5355 10.7279 25.7625 10.8315 25.9788C11.1837 26.7224 11.4661 27.4803 11.3624 28.3311C11.3302 28.5992 11.3517 28.8763 11.3588 29.148C11.3713 29.5698 11.5394 29.7003 12.0005 29.6895C12.392 29.6806 12.333 29.3964 12.3151 29.1658C12.299 28.9567 12.2382 28.7494 12.1739 28.5474C11.9272 27.7734 11.6663 27.003 11.4214 26.2273C11.3803 26.095 11.3856 25.9466 11.3695 25.8072C11.4124 25.7965 11.4553 25.784 11.4965 25.7733C11.9237 27.2211 12.3509 28.6707 12.7995 30.1936C13.0837 29.5019 13.3518 28.8745 13.6021 28.2399C14.1633 26.8171 14.7085 25.3872 15.2769 23.9662C15.3645 23.7463 15.5128 23.5354 15.6773 23.3638C16.4155 22.5898 16.8874 21.6496 17.2735 20.6826C18.0278 18.7933 19.4899 17.8353 21.3828 17.4921C23.2506 17.1525 25.1328 17.3759 26.9578 17.7977C28.7327 18.2088 30.084 19.3367 31.2244 20.7452C32.3237 22.1019 33.019 23.6569 33.6571 25.2603C34.0843 26.3345 34.6581 27.3498 35.1031 28.4187C36.0934 30.787 36.8298 33.2305 37.1676 35.7865C37.3482 37.1503 37.5359 38.5159 37.3392 39.8887C37.282 40.2855 37.0818 40.6662 36.9263 41.0469C36.7637 41.4437 36.7565 42.4876 36.9943 42.9452C37.3964 42.1891 37.7575 41.4884 38.1364 40.7967C38.4778 40.1729 38.8264 39.5544 39.191 38.9449C39.6683 38.1477 40.1116 37.3237 40.6639 36.5819C41.2591 35.7811 41.865 34.9375 42.6372 34.3315C44.4765 32.8891 46.4337 31.6093 48.8718 31.4019C49.9532 31.3107 51.0364 31.1392 52.116 31.1588C54.6416 31.2053 56.9421 31.9131 58.7724 33.7685C59.6518 34.6586 60.2756 35.7132 60.7493 36.8625C60.8011 36.9877 60.8637 37.1074 61.0228 37.2236C61.1551 36.6909 61.2784 36.1547 61.4232 35.6238C61.7056 34.5925 62.0416 33.5736 62.2829 32.5316C62.703 30.7245 63.0569 28.9031 63.4662 27.0942C63.5395 26.7689 63.7647 26.4829 63.9006 26.1683C64.1365 25.6213 64.3528 25.0672 64.5851 24.5203C64.6852 24.2861 64.7979 24.0555 64.9266 23.8357C65.797 22.3557 66.6765 20.8828 67.5451 19.4028C69.0609 16.82 71.2523 15.231 74.257 14.8699C76.0033 14.6608 77.7461 14.7555 79.4441 15.2292C80.9223 15.6421 81.9519 16.5233 82.4703 18.0551C82.7384 18.8452 83.3568 19.5154 83.8162 20.2411C84.9119 21.9696 85.9486 23.7213 86.6868 25.6517C87.0693 26.6509 87.1444 27.7091 87.5073 28.6993C87.5466 28.8048 87.5716 28.9156 87.6288 29.1051C87.7897 28.719 87.8755 28.374 88.0614 28.0969C88.2884 27.7609 88.5744 27.4517 88.8818 27.1836C89.3733 26.7528 89.4591 26.5723 89.1356 26.0164C88.9747 25.7411 88.9998 25.5195 89.0856 25.2495C89.3698 24.3719 89.6826 23.5014 89.9006 22.6059C90.0436 22.0179 90.0436 21.3923 90.1187 20.7863C90.133 20.6683 90.1991 20.5557 90.2671 20.3716C90.6103 20.7059 90.6782 21.0616 90.6049 21.4262C90.5209 21.8427 90.36 22.2449 90.251 22.6578C90.158 23.0135 90.0794 23.3763 90.0186 23.7392C89.9578 24.0967 90.1562 24.2307 90.5513 24.2164C90.5709 23.8053 90.5691 23.396 90.6156 22.9902C90.6567 22.6292 90.7586 22.2753 90.8212 21.916C90.9391 21.2475 91.0625 20.579 91.1554 19.9069C91.2144 19.4868 91.2019 19.0561 91.2662 18.6378C91.3002 18.4233 91.4718 18.2321 91.5093 18.0194C91.5469 17.8031 91.5451 17.5528 91.4718 17.3491C91.3288 16.9469 91.5129 16.6198 91.9151 16.6037C91.9151 16.9004 91.9151 17.1954 91.9151 17.4921C91.9151 17.6333 91.9598 17.8031 91.899 17.9085C91.4343 18.7057 91.4879 19.6191 91.2895 20.4753C91.1572 21.0401 90.9946 21.5835 91.2895 22.1626C91.3914 22.1555 91.4986 22.1466 91.6059 22.1376C91.7024 22.3986 91.7989 22.6595 91.8954 22.9205C91.9437 22.9312 91.9919 22.9438 92.0402 22.9545C91.9115 23.1028 91.8096 23.2959 91.647 23.387C91.2376 23.6194 90.8319 23.7981 90.6996 24.3415C90.6067 24.7258 90.326 25.0601 90.1848 25.4354C90.0973 25.6714 90.074 25.9574 90.478 25.986C90.848 26.011 90.8927 25.7947 90.8319 25.5212C90.7372 25.0958 90.8623 24.733 91.0946 24.3862C91.2466 24.161 91.3914 24.1914 91.5719 24.363C91.6845 24.4702 91.8329 24.5399 92.042 24.6758C92.0867 24.3272 92.1135 24.1038 92.1457 23.8804C92.1814 23.6266 92.176 23.3549 92.269 23.1225C92.664 22.1466 92.891 21.1277 93.0036 20.091C93.0984 19.2295 93.1109 18.359 93.1162 17.4921C93.1162 17.358 92.8964 17.1882 92.7427 17.1006C92.5907 17.013 92.3905 17.0059 92.1689 16.954C92.2672 16.7556 92.353 16.5805 92.4477 16.3892C92.6265 16.4571 92.7677 16.509 92.9786 16.5894C93.1234 16.1372 93.2646 15.6993 93.4058 15.2596C93.4505 15.2667 93.4952 15.2739 93.5399 15.281C93.5631 15.7422 93.6131 16.2015 93.6024 16.6609C93.5559 18.3661 93.4612 20.0678 93.0161 21.7265C93.0054 21.7676 92.9804 21.8177 92.9911 21.8516C93.2253 22.5237 92.9214 23.0617 92.5889 23.6069C92.4924 23.766 92.5174 23.9948 92.4728 24.1896C92.4281 24.3826 92.4263 24.6454 92.2994 24.7473C91.8311 25.1226 91.8954 25.5999 91.9669 26.0825C92.017 26.4203 92.0867 26.7367 91.6827 26.9297C91.6201 26.9601 91.6094 27.1567 91.6201 27.2711C91.6559 27.6483 91.4986 27.9289 91.1965 28.2203C91.0571 27.9236 90.9373 27.6697 90.7818 27.3409C90.4798 27.7841 90.1991 28.1202 89.6754 27.7949C89.6379 28.1702 89.7219 28.2971 90.024 28.4955C90.3564 28.7136 90.6138 28.9513 91.0303 28.8995C91.0392 29.055 91.1036 29.232 91.0517 29.3624C90.3529 31.1016 89.6558 32.8408 88.9175 34.5621C88.5297 35.4665 88.031 36.3209 87.8183 37.3022C87.7503 37.615 87.4804 37.8867 87.2963 38.1727C87.2141 38.3014 87.114 38.4176 87.0211 38.5409C87.6002 38.952 87.9327 38.8716 88.0614 38.246C88.2687 37.2361 88.8407 36.4282 89.4341 35.6131C89.3966 35.7615 89.3751 35.917 89.3161 36.0564C89.0069 36.791 88.6905 37.5239 88.3706 38.2549C88.2973 38.4248 88.2473 38.6553 88.1114 38.7429C87.3661 39.2184 87.316 40.1049 86.8745 40.752C85.7627 42.3821 85.1049 44.3036 83.6625 45.7211C83.2263 46.1501 82.8277 46.6166 82.4113 47.0652C82.2933 47.1903 82.1235 47.2869 82.0556 47.4334C81.5319 48.5309 80.5076 49.144 79.6497 49.909C78.6666 50.7867 77.612 51.5821 76.6253 52.4579C76.2017 52.8351 75.8603 53.307 75.51 53.7592C74.5287 55.0265 73.2203 55.9184 71.9637 56.8657C68.7302 59.3056 65.3627 61.5345 61.6287 63.1414C60.5152 63.6205 59.3408 63.9529 58.1915 64.3462C57.7929 64.4838 57.4408 64.6625 57.237 65.2345C57.6553 65.1934 58.0002 65.2202 58.3005 65.1166C59.4606 64.7162 60.5992 64.2514 61.7592 63.8493C62.837 63.4757 63.9399 63.17 65.0195 62.7965C66.1992 62.3871 67.2663 61.7687 68.2923 61.0466C69.5918 60.1332 70.9735 59.336 72.3015 58.4619C73.2078 57.8667 74.0335 57.1285 74.988 56.637C75.6279 56.3063 75.9407 55.8737 76.1767 55.2588C76.3501 54.8084 76.586 54.3723 76.8506 53.9665C77.04 53.6752 77.3242 53.4446 77.5655 53.1872C77.5941 53.214 77.6209 53.239 77.6495 53.2658C77.4815 53.7252 77.2885 54.1792 77.1544 54.6475C77.1044 54.8227 77.1348 55.1695 77.2259 55.2088C77.4654 55.3125 77.7961 55.3822 78.0249 55.2928C78.3306 55.1748 78.6004 54.921 78.8364 54.6779C79.353 54.1488 79.8052 53.5518 80.3486 53.0514C81.1064 52.356 81.8947 51.6875 82.7205 51.0762C83.6786 50.3666 84.2917 49.38 84.9798 48.4541C85.6072 47.6104 86.1756 46.722 86.769 45.8533C86.803 45.873 86.837 45.8945 86.8709 45.9141C86.4795 46.6059 86.1166 47.3137 85.6948 47.984C83.5302 51.4284 80.7186 54.2793 77.4654 56.6834C71.5901 61.0251 65.1607 64.2586 58.036 65.9853C56.2932 66.4071 54.4843 66.5823 52.6987 66.8021C51.4207 66.9576 50.1301 67.0649 48.845 67.0756C44.6087 67.1113 40.4905 66.3785 36.5134 64.9432C34.7278 64.2979 33.0029 63.4775 31.2602 62.716C29.8445 62.0976 28.402 61.5256 27.0436 60.7981C20.9109 57.5146 16.0187 52.9227 12.5493 46.8632C12.2901 46.411 12.0524 45.9463 11.8307 45.4816C12.8567 46.8043 13.8595 48.1484 14.9176 49.4443C15.9615 50.7223 17.0965 51.9163 18.4121 52.9298C18.7713 53.2069 19.0448 53.5912 19.3665 53.9183C19.4952 54.0487 19.6364 54.1792 19.7955 54.2686C19.9868 54.3741 20.2406 54.5331 20.3854 54.24C20.5016 54.0058 20.5945 53.786 20.2424 53.5304C19.876 53.2659 19.6597 52.7904 19.3791 52.4079C19.4202 52.3596 19.4631 52.3114 19.506 52.2631C19.6329 52.34 19.792 52.3918 19.8813 52.499C20.1709 52.8529 20.414 53.2444 20.7161 53.584C20.8537 53.7377 21.0914 53.8003 21.2791 53.9147C21.3435 53.954 21.431 54.0166 21.4418 54.0791C21.524 54.5242 21.8779 54.728 22.1907 54.9746C23.4741 55.9845 24.7306 57.0284 26.0444 57.9972C27.2062 58.8534 28.402 59.672 29.6336 60.4263C31.6731 61.6757 33.7626 62.8501 36.0076 63.6955C36.6725 63.9458 37.3875 64.0566 38.0685 64.2657C38.5869 64.423 39.0873 64.6357 39.5968 64.8198C39.6718 64.8467 39.7541 64.8574 39.8434 64.877C39.9006 64.5732 39.8631 64.3873 39.5503 64.2514C38.0453 63.5901 36.551 62.9073 35.0585 62.2173C33.9038 61.6829 32.7223 61.1913 31.6159 60.5693C29.1671 59.193 26.9721 57.4556 24.938 55.5287C22.4713 53.1926 20.0547 50.8063 17.6417 48.4147C15.5432 46.3342 13.6986 44.0641 12.4885 41.3276C12.2311 40.7466 11.7753 40.2569 11.4822 39.6885C11.1229 38.9932 10.8333 38.2603 10.5295 37.5382C10.4848 37.4309 10.483 37.2361 10.5509 37.17C10.6153 37.1056 10.794 37.1414 10.9191 37.1575C11.0264 37.17 11.13 37.2147 11.332 37.2754C11.282 37.0163 11.2784 36.8178 11.2069 36.648C10.3972 34.7087 9.56245 32.7782 8.76883 30.8317C8.34878 29.8004 7.9752 28.7494 7.62487 27.6948C7.37462 26.9387 7.0511 26.1629 7.01892 25.3854C6.96709 24.1163 6.28786 22.9598 6.44158 21.6729C6.44694 21.6318 6.45231 21.5799 6.43443 21.5442C5.90535 20.4968 6.11627 19.3385 5.93395 18.2374C5.92144 18.1677 5.88569 18.1034 5.86067 18.0372V16.5733L5.85352 16.5697ZM46.4659 57.6433C46.4391 57.4395 46.4248 57.3269 46.4069 57.2143C46.1173 55.3214 45.8045 53.4321 45.5454 51.5356C45.363 50.2058 45.2433 48.8652 45.1128 47.53C44.9591 45.9499 44.834 44.368 44.6785 42.7897C44.5766 41.7476 44.6266 40.6787 44.0421 39.7224C43.8562 39.4186 43.8348 39.0146 43.7418 38.6553C43.6989 38.4873 43.6614 38.3157 43.6042 38.0655C41.9044 40.0299 40.335 41.9621 39.1714 44.1875C38.8675 44.7684 38.678 45.4297 38.2955 45.9481C37.1998 47.4352 36.0326 48.8687 34.8922 50.3219C34.7707 50.4757 34.6348 50.6187 34.4543 50.826C34.549 50.12 34.6009 49.5051 34.7224 48.9045C34.8618 48.2146 34.9387 47.4996 35.5715 46.9973C35.7717 46.8382 35.8628 46.4754 35.8986 46.1912C35.9558 45.7425 35.9325 45.2832 35.9254 44.8291C35.9254 44.7308 35.8664 44.6146 35.7985 44.5396C34.9494 43.6047 34.3792 42.509 34.1361 41.2847C33.9109 40.1407 33.8251 38.9681 33.6803 37.8081C33.4623 36.06 33.1173 34.3369 32.5364 32.6692C32.3219 32.0561 32.0681 31.4466 31.5301 30.9193C31.4371 31.1392 31.3495 31.2982 31.3031 31.468C30.9116 32.8998 30.4361 34.319 30.1645 35.774C29.7533 37.9761 29.3923 40.1979 29.1903 42.4268C29.0348 44.132 29.0884 45.8641 29.1724 47.5782C29.2439 49.0725 29.4763 50.5615 29.664 52.0486C29.6854 52.2238 29.8391 52.449 29.9947 52.5312C31.6194 53.3767 33.2228 54.274 34.8976 55.0086C37.8093 56.2848 40.8784 57.0409 44.0332 57.4306C44.8268 57.5289 45.6258 57.5682 46.4659 57.6397M68.1833 27.6072C68.017 27.8395 67.8848 28.0058 67.7757 28.1863C65.9204 31.2589 64.9677 34.6086 64.6906 38.1709C64.5994 39.3524 64.46 40.5321 64.3349 41.7101C64.1168 43.7674 63.4948 45.7675 63.468 47.8553C63.4626 48.2396 63.3411 48.6096 63.1498 48.9796C62.9675 49.3317 62.8656 49.8358 62.9729 50.2022C63.2607 51.1996 63.4108 52.2041 63.418 53.2355C63.418 53.323 63.4001 53.4088 63.3822 53.5626C63.2374 53.382 63.1355 53.2641 63.0426 53.1389C62.0327 51.7698 61.3302 50.2326 60.6456 48.69C60.483 48.3236 60.3525 47.8964 60.3686 47.5032C60.4222 46.2788 60.1487 45.1151 59.8288 43.9569C59.3694 42.2946 58.7867 40.6823 57.725 39.2934C57.439 38.9181 57.0779 38.5999 56.7508 38.2567C56.7079 38.28 56.6632 38.305 56.6203 38.3282C56.4362 44.5646 56.3701 50.8081 55.5032 57.0302C55.6748 57.0213 55.8035 57.0248 55.9286 57.0052C58.9261 56.5065 61.8647 55.7897 64.7049 54.6922C67.0929 53.7681 69.354 52.6063 71.4257 51.0887C71.6187 50.9475 71.7528 50.8171 71.7832 50.5329C71.8296 50.0931 71.7724 49.6749 71.7528 49.2441C71.717 48.4719 71.3864 47.8463 71.0914 47.185C71.0128 47.008 70.9592 46.8096 70.9431 46.6148C70.902 46.1733 70.8769 45.7282 70.8716 45.2849C70.8287 41.6904 70.6749 38.1012 70.1602 34.5424C69.9224 32.8926 69.5793 31.2571 69.211 29.6306C69.0502 28.9174 68.7678 28.2149 68.1904 27.6054M78.9901 43.7638C79.1742 43.5565 79.2815 43.4475 79.3762 43.3295C81.4425 40.718 83.2603 37.9439 84.835 35.0107C84.9405 34.8159 84.9655 34.5389 84.9298 34.3154C84.7904 33.4414 84.6652 32.5602 84.4329 31.7076C84.0754 30.3866 83.6786 29.0747 83.212 27.7895C83.0172 27.2533 82.6061 26.7975 82.2933 26.3041C82.2558 26.322 82.2182 26.3417 82.1789 26.3595C81.3692 32.1634 80.656 37.9833 78.9883 43.7603M17.7132 28.7529C17.2931 28.8691 17.1215 29.1372 17.1036 29.5412C17.0733 30.2097 16.8784 30.8264 16.5299 31.4019C16.4012 31.6146 16.2904 31.8595 16.251 32.1026C16.0294 33.4396 15.8256 34.7784 15.6326 36.119C15.6058 36.3031 15.6219 36.5283 15.7077 36.6856C16.5817 38.2961 17.4719 39.8958 18.3602 41.4974C18.4246 41.6135 18.5139 41.7154 18.5908 41.8245C18.6355 40.9093 18.5604 40.0299 18.5461 39.1487C18.4961 36.3567 18.4264 33.5629 18.4585 30.7709C18.4675 29.9469 18.1422 29.3607 17.715 28.7511" fill="#94D1B2"/>
<path d="M93.0125 21.7265C93.4594 20.066 93.5523 18.3661 93.5988 16.6609C93.6113 16.2033 93.5577 15.7386 93.5416 15.2792C93.4951 15.2739 93.4486 15.2685 93.4022 15.2613C93.2627 15.6957 93.1233 16.1372 92.9785 16.5894C92.764 16.509 92.6246 16.4554 92.4459 16.3856C92.3529 16.5769 92.2654 16.7521 92.167 16.9487C92.3869 17.0059 92.5907 17.013 92.7408 17.1006C92.8981 17.1882 93.1126 17.3562 93.1126 17.4885C93.1126 18.359 93.0947 19.2295 93.0036 20.0892C92.8927 21.1277 92.6675 22.1483 92.2725 23.1243C92.1742 23.3567 92.1796 23.6301 92.1456 23.8786C92.117 24.1056 92.0884 24.3254 92.0473 24.674C91.8382 24.5399 91.688 24.4702 91.5772 24.3666C91.3967 24.1932 91.2519 24.1628 91.1017 24.3844C90.864 24.733 90.7407 25.0976 90.8354 25.5212C90.8997 25.7929 90.8533 26.0092 90.4815 25.986C90.0811 25.9574 90.1043 25.6732 90.1919 25.4337C90.3313 25.0565 90.6102 24.7258 90.7031 24.3433C90.8372 23.7982 91.2429 23.6176 91.654 23.3853C91.8113 23.2923 91.915 23.101 92.0437 22.9563C91.9972 22.9455 91.9508 22.933 91.8989 22.9205C91.806 22.6596 91.7077 22.3986 91.6094 22.1376C91.5057 22.143 91.3949 22.1555 91.2966 22.1609C90.9998 21.5817 91.1625 21.0401 91.2966 20.4717C91.4932 19.6191 91.4413 18.7022 91.9061 17.9068C91.9651 17.8031 91.9168 17.6279 91.924 17.4885V16.6001C91.5182 16.618 91.3377 16.9415 91.4771 17.3437C91.5522 17.5528 91.5522 17.8013 91.5182 18.0158C91.4771 18.2303 91.3091 18.4215 91.2751 18.636C91.2108 19.0543 91.2233 19.4833 91.1643 19.9069C91.0713 20.5754 90.9444 21.2421 90.8283 21.9142C90.7639 22.2735 90.6656 22.6274 90.6263 22.9884C90.5798 23.3942 90.5798 23.8017 90.5619 24.2128C90.1615 24.2307 89.9649 24.0967 90.0275 23.7374C90.0865 23.3727 90.1669 23.0117 90.2598 22.6578C90.3635 22.2395 90.5262 21.8391 90.6084 21.4226C90.6835 21.0634 90.6191 20.7023 90.2706 20.3716C90.208 20.5575 90.1365 20.6666 90.1258 20.7827C90.0507 21.3923 90.0507 22.0125 89.9059 22.6041C89.6843 23.4979 89.3769 24.3683 89.0944 25.2442C89.0069 25.5177 88.9783 25.7375 89.1409 26.011C89.4662 26.5687 89.3786 26.7474 88.8853 27.1782C88.5832 27.4445 88.2937 27.7591 88.0667 28.0951C87.8808 28.3668 87.795 28.7154 87.6377 29.0997C87.5805 28.9138 87.5501 28.803 87.5161 28.6939L87.1926 29.8129C87.1408 31.7219 85.9432 32.0204 85.4552 33.8257C85.491 34.0527 84.9512 34.8159 84.8475 35.0072C84.7671 35.152 84.6902 35.2967 84.6098 35.4415C84.6098 35.4469 84.6098 35.454 84.6044 35.454C78.654 47.2368 66.1205 57.6397 48.9718 57.6397C48.1299 57.6397 47.2952 57.6165 46.4658 57.57C46.4712 57.5932 46.4712 57.6165 46.4766 57.6397C45.6347 57.57 44.8411 57.5289 44.0456 57.4306C43.2395 57.3323 42.4316 57.2036 41.638 57.0534C32.8044 55.6163 26.6896 50.5972 21.3881 45.0651C16.9713 40.4571 15.3573 35.6721 12.24 29.627H12.6404C12.5885 29.6609 12.1113 29.6842 12.0076 29.6842C11.5429 29.6949 11.3749 29.5626 11.3641 29.139C11.3588 28.8727 11.3337 28.5938 11.3695 28.3275C11.4732 27.4749 11.189 26.7206 10.8404 25.977C10.7367 25.7572 10.6599 25.5302 10.3185 25.5892C10.2363 25.6017 10.011 25.3228 10.0164 25.1888C10.0343 24.9689 10.1898 24.7544 10.2774 24.556C9.85374 24.1145 10.045 23.5122 9.90558 22.9956C9.76079 22.4737 9.63925 21.9446 9.50519 21.4173C9.11553 21.4924 9.08693 21.7354 9.22635 22.05C9.26746 22.1376 9.36577 22.2055 9.38901 22.2931C9.43548 22.4611 9.48195 22.6524 9.44084 22.8151C9.42297 22.8794 9.18524 22.9259 9.04582 22.9259C8.76162 22.9205 8.44166 22.9312 8.51852 22.4737C8.52389 22.4165 8.46669 22.3468 8.43094 22.2824C8.29688 22.0322 8.30403 21.8123 8.48278 21.5692C8.55249 21.4709 8.52389 21.1813 8.43094 21.1045C8.10563 20.8203 7.73384 20.5879 7.37993 20.3395C7.33882 20.3573 7.29949 20.3681 7.25838 20.3859C7.31022 20.5486 7.32273 20.7345 7.40853 20.8685C7.58906 21.1295 7.59442 21.3619 7.40316 21.6175C6.95094 21.5424 6.68461 21.2922 6.64886 20.8578C6.49157 19.0185 6.34679 17.1721 6.19664 15.3328C6.13944 14.6018 6.08046 13.8761 6.02326 13.145C5.94104 13.9404 5.9464 14.7233 5.93568 15.5116C5.93031 15.8655 5.8892 16.2194 5.86597 16.568V18.0354C5.8892 18.0998 5.92316 18.1624 5.93568 18.2321C6.12157 19.3349 5.91244 20.4896 6.44152 21.5406C6.4594 21.5764 6.45225 21.6282 6.44688 21.6675C6.29138 22.9563 6.97418 24.111 7.02065 25.3765C7.0564 26.154 7.37993 26.9315 7.63017 27.6858C7.97872 28.7476 8.35587 29.7986 8.77413 30.8264C9.56954 32.7765 10.4043 34.7033 11.2122 36.6409C11.2819 36.8161 11.2873 37.0127 11.3391 37.2683C11.1353 37.2111 11.0317 37.1646 10.9208 37.1521C10.7993 37.1414 10.6188 37.1003 10.5544 37.1646C10.4847 37.2343 10.4847 37.4256 10.5312 37.5364C10.8333 38.2549 11.1228 38.9932 11.4839 39.6831C11.7788 40.2515 12.2382 40.7449 12.4938 41.3258C13.7003 44.0659 15.5467 46.3342 17.647 48.4112C20.0618 50.801 22.4748 53.1926 24.9415 55.5252C26.9792 57.452 29.1724 59.193 31.6212 60.5675C32.7294 61.1878 33.9073 61.6811 35.062 62.2156C36.5527 62.9055 38.0506 63.5847 39.5538 64.2461C39.8666 64.3855 39.9077 64.5714 39.8505 64.8735C39.7576 64.8556 39.6771 64.8431 39.6003 64.8145C39.0891 64.6286 38.5904 64.4195 38.0738 64.264C37.3892 64.0548 36.6742 63.944 36.0129 63.6956C33.7625 62.8483 31.6784 61.6757 29.6353 60.4228C28.4056 59.6685 27.2098 58.8498 26.0497 57.9972C24.7324 57.0284 23.4794 55.9828 22.1906 54.9729C21.8778 54.7298 21.5239 54.5206 21.4417 54.0791C21.4292 54.0148 21.3434 53.9522 21.279 53.9111C21.0932 53.8003 20.8554 53.7377 20.716 53.5804C20.4139 53.2444 20.1708 52.8494 19.8795 52.4955C19.7919 52.3918 19.6364 52.3382 19.5077 52.2631C19.4612 52.3096 19.4201 52.356 19.379 52.4025C19.6578 52.785 19.8723 53.2605 20.2441 53.5286C20.598 53.7842 20.4997 54.0041 20.3835 54.2364C20.2388 54.5331 19.9885 54.3705 19.7973 54.265C19.6346 54.1774 19.4952 54.0452 19.3683 53.9165C19.043 53.5912 18.7713 53.2015 18.4102 52.9298C17.0982 51.9145 15.9614 50.7188 14.9176 49.4425C13.8612 48.1431 12.8584 46.8025 11.8306 45.478C12.0577 45.9427 12.2954 46.4075 12.551 46.8597C16.0204 52.9173 20.9126 57.5074 27.0471 60.7927C28.4056 61.5184 29.8498 62.0922 31.2655 62.7142C33.0064 63.4739 34.7295 64.2926 36.517 64.936C40.4922 66.3749 44.6123 67.106 48.8485 67.072C50.1372 67.0595 51.426 66.9558 52.7022 66.7985C54.4896 66.5787 56.2932 66.4035 58.0413 65.9799C65.1678 64.2568 71.5972 61.0233 77.4707 56.6834C80.7257 54.2758 83.5355 51.4266 85.7001 47.9786C86.1237 47.3119 86.4901 46.6041 86.878 45.9123C86.8423 45.8891 86.8083 45.8712 86.7743 45.848C86.1827 46.7185 85.6143 47.6068 84.9869 48.4487C84.297 49.3764 83.6803 50.3648 82.724 51.0709C81.9 51.6858 81.11 52.3525 80.3557 53.0496C79.8105 53.5483 79.3583 54.1471 78.8399 54.6744C78.6022 54.9192 78.3359 55.1677 78.0284 55.2892C77.8014 55.3768 77.4707 55.3071 77.233 55.2016C77.1401 55.1677 77.1115 54.8191 77.1579 54.6458C77.2902 54.1757 77.4832 53.7234 77.6566 53.2587C77.628 53.2355 77.5976 53.2069 77.569 53.1836C77.3313 53.4392 77.0471 53.6716 76.8541 53.9612C76.5877 54.3669 76.3554 54.803 76.182 55.2553C75.9443 55.8701 75.6368 56.2991 74.9916 56.6298C74.0406 57.1231 73.2095 57.8596 72.305 58.4584C70.977 59.3342 69.5953 60.1296 68.2958 61.0412C67.268 61.7669 66.2063 62.3818 65.023 62.7947C63.9434 63.1665 62.8405 63.4739 61.7681 63.8457C60.6063 64.2514 59.4641 64.7108 58.3094 65.1166C58.0073 65.2202 57.6588 65.1916 57.2423 65.2327C57.4461 64.6643 57.8 64.4838 58.2004 64.3444C59.3497 63.9494 60.5205 63.6187 61.6358 63.1432C65.3733 61.5363 68.7391 59.302 71.9708 56.864C73.2238 55.9184 74.5358 55.0247 75.5171 53.7592C75.8656 53.307 76.207 52.8297 76.6306 52.4544C77.6173 51.5839 78.6737 50.7831 79.655 49.9073C80.5147 49.1422 81.5407 48.5327 82.0627 47.4352C82.1324 47.2851 82.3004 47.1921 82.4219 47.0634C82.8402 46.6166 83.2352 46.1465 83.6696 45.7229C85.1138 44.3001 85.7698 42.3804 86.8852 40.7484C87.3267 40.1049 87.3785 39.2166 88.1221 38.7411C88.2561 38.6535 88.308 38.4212 88.383 38.2532C88.703 37.5221 89.0158 36.791 89.3232 36.0546C89.3876 35.9152 89.4055 35.7579 89.4448 35.6131C88.8478 36.4264 88.2776 37.2325 88.0685 38.2424C87.9415 38.8698 87.6109 38.9503 87.0299 38.5392C87.1229 38.4176 87.2212 38.3014 87.3016 38.1727C87.4875 37.8885 87.7539 37.615 87.8236 37.3022C88.0381 36.3209 88.5368 35.4683 88.9264 34.5639C89.6628 32.8408 90.3599 31.0998 91.0553 29.3642C91.1071 29.2302 91.0445 29.0568 91.0374 28.8995C90.6191 28.9513 90.3635 28.7136 90.0275 28.4937C89.7254 28.2971 89.645 28.1684 89.6789 27.7913C90.2062 28.122 90.4851 27.7859 90.7871 27.3391C90.9444 27.6697 91.0606 27.9253 91.2054 28.2203C91.5075 27.9236 91.663 27.6465 91.629 27.2676C91.6183 27.1514 91.629 26.9548 91.6862 26.9244C92.092 26.7331 92.024 26.4203 91.9704 26.0771C91.9007 25.5945 91.8364 25.1191 92.3065 24.7419C92.428 24.6436 92.4352 24.3773 92.4745 24.1842C92.521 23.993 92.4977 23.7606 92.5907 23.6033C92.9267 23.0582 93.2288 22.5183 92.9964 21.8445C92.9839 21.8087 93.0071 21.764 93.0196 21.7229M12.1685 28.5456C12.1738 28.5635 12.1792 28.5742 12.1792 28.5921C12.1738 28.424 12.1738 28.2614 12.1738 28.0934C11.9415 27.3105 11.7163 26.5437 11.4892 25.7733C11.4481 25.784 11.4088 25.7965 11.3623 25.809C11.3802 25.9484 11.3731 26.0986 11.4142 26.2326C11.6573 27.0048 11.92 27.777 12.1685 28.5492" fill="#369881"/>
<path d="M23.7099 14.2459C22.5767 14.1082 21.4381 14.0063 20.312 13.824C19.1877 13.6399 18.3548 13 17.8132 11.9883C17.5361 11.47 17.2019 10.9802 16.9695 10.444C16.5888 9.56456 16.5673 8.63688 16.8694 7.73065C17.2269 6.65997 17.9204 5.78055 18.7176 5.02089C19.4487 4.32379 20.2941 3.74287 21.1164 3.14944C21.3201 3.00287 21.6329 3.01181 21.8957 2.94389C22.8073 2.70973 23.7153 2.46485 24.6287 2.24321C25.1917 2.10737 25.6422 2.28432 25.9424 2.79911C26.3482 3.49442 26.9095 4.04495 27.594 4.45249C27.8925 4.63123 28.259 4.69558 28.5879 4.82785C28.7273 4.88326 28.9096 4.94939 28.9704 5.06379C29.8891 6.79403 30.3038 8.57611 29.3475 10.4315C28.8238 11.4467 27.9623 12.1742 27.0846 12.8713C26.8594 13.0483 26.6109 13.1931 26.3786 13.3611C25.585 13.9348 24.7663 14.4264 23.6992 14.0904C23.7028 14.144 23.7064 14.1958 23.7099 14.2494" fill="#369881"/>
<path d="M74.6377 12.0259C73.601 11.9025 72.5607 11.8185 71.5329 11.6433C70.4408 11.4575 69.5721 10.8926 69.0269 9.88987C68.7123 9.31253 68.3119 8.76736 68.0831 8.15784C67.7685 7.31954 67.7006 6.42046 68.0027 5.55355C68.3906 4.43282 69.1216 3.51408 69.9707 2.72046C70.666 2.06983 71.4596 1.51573 72.2479 0.974133C72.4999 0.798964 72.8717 0.795389 73.1881 0.714954C74.0854 0.486162 74.9809 0.255583 75.8799 0.0339404C76.3697 -0.0876054 76.7308 0.11795 77.0328 0.498674C77.3778 0.931234 77.7264 1.36558 78.1071 1.76597C78.5522 2.23249 79.1259 2.4863 79.7497 2.64002C79.8909 2.67399 80.0697 2.758 80.1323 2.87239C80.883 4.27196 81.3191 5.75017 80.8383 7.32311C80.6435 7.96123 80.2842 8.58504 79.8695 9.11412C78.9382 10.3046 77.6781 11.1178 76.3822 11.8614C76.2535 11.9347 76.0855 11.9633 75.9336 11.9687C75.5046 11.983 75.0738 11.9722 74.6448 11.9722C74.643 11.9901 74.6395 12.008 74.6377 12.0259Z" fill="#369881"/>
<path d="M54.8881 24.3323C55.0329 26.8937 53.1328 28.8921 51.1112 29.6785C51.0076 29.7179 50.8914 29.7322 50.7788 29.7375C50.1925 29.7679 49.6026 29.8412 49.0217 29.8054C47.6204 29.7197 46.4353 29.1191 45.4719 28.111C44.8784 27.4907 44.4655 26.7114 44.5764 25.8606C44.7623 24.436 45.1269 23.0471 46.4085 22.1338C46.757 21.8853 47.0734 21.594 47.4148 21.333C48.1262 20.7932 48.9735 20.652 49.8261 20.5429C50.3498 20.4768 50.8771 20.3856 51.4026 20.3964C51.5885 20.3999 51.853 20.6377 51.937 20.8307C52.1533 21.3276 52.391 21.7888 52.8558 22.0909C53.0077 22.191 53.1739 22.2893 53.3473 22.3357C54.5163 22.6539 54.8881 23.1276 54.8881 24.3305M51.7279 21.3151C51.2846 21.4099 50.9146 21.5099 50.5375 21.5636C49.4632 21.7155 48.4337 21.9872 47.5364 22.6271C46.8571 23.1115 46.4192 23.7496 46.2762 24.5933C45.9044 26.7847 48.044 29.0136 50.4106 28.3755C51.8048 28.0001 53.1257 27.4979 53.5743 25.8981C53.6351 25.6783 53.7263 25.4638 53.7602 25.2385C53.8907 24.3734 53.8335 23.5566 52.9791 23.0525C52.4393 22.7343 52.1623 22.2303 51.9031 21.703C51.8352 21.5636 51.7744 21.4206 51.7261 21.3133" fill="#369881"/>
<path d="M3.6568 98.6992V101.012C4.6524 101.012 5.49786 100.966 6.49346 101.012C7.97167 101.082 7.82153 104.085 6.49346 104.256C5.5068 104.383 4.6524 104.256 3.6568 104.256V109.116C3.6568 110.393 0.412598 110.393 0.412598 109.116V96.422C0.412598 95.8482 1.06323 95.5283 2.37342 95.4568C3.95709 95.3728 5.54612 95.4568 7.13158 95.4568C8.71703 95.4568 8.6509 98.6992 7.13158 98.6992H3.6568Z" fill="#369881"/>
<path d="M17.6274 108.219C15.7667 110.592 12.1257 110.583 10.5385 107.942C8.89581 105.302 8.88151 101.905 9.69122 98.9972C10.3704 96.1302 13.9257 94.2677 16.6318 95.9175C18.4497 97.031 18.9805 99.226 19.2004 101.151C19.4721 103.521 19.2558 106.31 17.6274 108.219ZM15.9115 100.894C15.8436 100.47 15.6148 99.0365 14.7139 98.595C14.1437 98.3144 13.5128 98.5951 13.1928 99.1027C12.451 100.281 12.2687 102.549 12.5046 104.397C12.7603 106.413 13.5128 107.003 14.049 107.01C15.7721 107.035 15.9365 104.746 16.0259 103.38C16.0616 102.561 16.0348 101.698 15.9115 100.892M15.5254 99.4191C15.5522 99.4781 15.5916 99.5603 15.5326 99.4316C15.5308 99.428 15.5272 99.4226 15.5254 99.4191Z" fill="#369881"/>
<path d="M30.0038 105.176C29.7696 106.787 29.0117 108.371 27.8749 109.225C26.0589 110.591 23.4921 110.507 21.837 108.101C19.8636 104.619 20.8789 96.7504 20.9111 96.3464C21.029 94.8932 24.0069 94.9683 24.0337 96.4984C24.0641 98.1786 23.3134 102.606 24.3001 105.73C24.3733 105.965 24.6665 106.883 25.4172 106.883C26.0178 106.883 26.3181 106.426 26.6184 105.663C26.8203 105.151 26.8793 104.44 26.9043 104.025C27.0688 101.387 27.0027 98.856 26.949 96.3464C26.9186 94.9719 29.5301 94.8468 29.9215 96.0408C30.372 97.4153 30.4256 102.291 30.0056 105.175" fill="#369881"/>
<path d="M41.2537 108.174C41.2341 108.891 41.1501 109.164 41.0625 109.341C40.7622 109.942 40.2206 110.104 39.2053 110.104C38.4796 110.104 38.0596 109.641 37.9094 109.341C37.2677 108.059 35.9772 105.026 35.2479 103.367C35.2479 105.344 35.2962 107.159 35.2479 108.968C35.2068 110.544 32.0538 110.544 32.0037 108.968C31.8804 104.987 32.0055 100.481 32.1539 96.4233C32.2021 95.0773 35.3552 95.2293 35.7055 96.2124C36.3633 98.0659 37.2177 99.8462 38.0095 101.646C38.0095 99.848 37.9613 98.2196 38.0095 96.5734C38.0596 94.9272 41.2126 95.0791 41.2537 96.5734C41.3538 100.245 41.3628 104.088 41.2537 108.177" fill="#369881"/>
<path d="M52.8294 102.417C52.8545 104.415 52.2431 106.469 50.9401 108.006C49.6013 109.583 47.6923 109.945 45.778 109.938C44.5375 109.945 43.2881 109.992 43.2881 109.116V96.4163C43.2881 95.6566 44.239 95.376 45.5903 95.376C47.4528 95.4743 49.1759 95.8639 50.6648 97.0687C52.2306 98.336 52.8062 100.474 52.8312 102.417M49.5852 102.417C49.5709 101.375 49.3564 100.068 48.4377 99.437C47.8818 99.0563 47.2097 98.9008 46.5305 98.8436V106.692C47.3438 106.649 48.0874 106.447 48.6468 105.713C49.3457 104.792 49.5995 103.552 49.5852 102.418" fill="#369881"/>
<path d="M60.3988 109.489C60.2844 109.093 60.0574 107.877 59.9573 107.477C59.0189 107.462 58.0805 107.448 57.1403 107.434C57.0581 107.8 56.8686 109.051 56.7453 109.404C56.3449 110.539 53.4903 110.088 53.5136 108.896C53.5493 106.962 55.4923 100.213 56.3073 97.0578C56.604 95.912 56.9437 95.374 58.5953 95.374C60.0967 95.374 60.4274 96.0926 60.767 97.1364C61.8984 100.629 63.2515 105.884 63.6573 108.932C63.8307 110.229 60.6973 110.54 60.397 109.489M59.1887 104.318C58.9688 103.387 58.749 102.454 58.5255 101.523C58.2985 102.447 58.0769 103.373 57.8588 104.299C58.3021 104.306 58.7454 104.311 59.1887 104.318Z" fill="#369881"/>
<path d="M70.4782 98.7346H69.0751C69.0751 102.202 69.168 105.684 69.0751 108.962C69.034 110.405 65.8809 110.557 65.8327 108.962C65.7272 105.547 65.8327 102.2 65.8327 98.7346H63.9684C62.4687 98.7149 62.1667 95.5261 63.9684 95.4546C66.1365 95.3688 68.3083 95.4546 70.48 95.4546C72.6518 95.4546 72.557 98.7346 70.48 98.7346" fill="#369881"/>
<path d="M76.4072 108.936C76.3661 110.476 73.2131 110.476 73.163 108.936C73.0379 105.046 73.163 100.418 73.163 96.5272C73.3632 94.9185 76.3661 95.0651 76.4072 96.5272C76.5163 100.417 76.5109 105.046 76.4072 108.936Z" fill="#369881"/>
<path d="M86.483 108.219C84.6223 110.592 80.9813 110.583 79.3941 107.942C77.7514 105.302 77.7371 101.905 78.5486 98.9972C79.2278 96.1302 82.783 94.2677 85.4874 95.9175C87.3053 97.031 87.8361 99.226 88.056 101.151C88.3277 103.521 88.1114 106.31 86.483 108.219ZM84.7689 100.894C84.6992 100.47 84.4722 99.0365 83.5713 98.595C83.0011 98.3144 82.3701 98.5951 82.052 99.1027C81.3084 100.281 81.1279 102.549 81.3638 104.397C81.6194 106.413 82.3701 107.003 82.9082 107.01C84.6312 107.035 84.7957 104.746 84.8851 103.38C84.9208 102.561 84.894 101.698 84.7707 100.892M84.3828 99.4191C84.4096 99.4781 84.4489 99.5603 84.3899 99.4316C84.3864 99.428 84.3846 99.4226 84.3828 99.4191Z" fill="#369881"/>
<path d="M98.961 108.174C98.9431 108.891 98.8573 109.164 98.7697 109.341C98.4694 109.942 97.9278 110.104 96.9126 110.104C96.1869 110.104 95.7668 109.641 95.6167 109.341C94.9768 108.059 93.6845 105.026 92.9552 103.367C92.9552 105.344 93.0017 107.159 92.9552 108.968C92.9141 110.544 89.761 110.544 89.7128 108.968C89.5876 104.987 89.7146 100.481 89.8629 96.4233C89.913 95.0773 93.066 95.2293 93.4146 96.2124C94.0723 98.0659 94.9267 99.8462 95.7186 101.646C95.7186 99.848 95.6685 98.2196 95.7186 96.5734C95.7668 94.9272 98.9199 95.0791 98.961 96.5734C99.0611 100.245 99.07 104.088 98.961 108.177" fill="#369881"/>
<path d="M15.1966 87.1536C15.1787 87.8168 15.1001 88.0706 15.0196 88.2333C14.7408 88.7891 14.2421 88.9393 13.3019 88.9393C12.6298 88.9393 12.242 88.5121 12.1025 88.2333C11.5109 87.0482 10.3169 84.2419 9.64124 82.7083C9.64124 84.5368 9.68414 86.2134 9.64124 87.8865C9.60371 89.345 6.68661 89.345 6.64192 87.8865C6.52753 84.2062 6.64371 80.0396 6.78134 76.286C6.82782 75.042 9.74313 75.1814 10.0667 76.0912C10.6762 77.8053 11.4662 79.4516 12.1973 81.1157C12.1973 79.4534 12.1508 77.9483 12.1973 76.4236C12.242 74.9025 15.1591 75.042 15.1966 76.4236C15.2895 79.8198 15.2985 83.3732 15.1966 87.1536Z" fill="#F0BB67"/>
<path d="M22.8468 88.3712C22.7413 88.003 22.5322 86.8787 22.4375 86.5105C21.5688 86.498 20.7019 86.4855 19.8332 86.4712C19.7581 86.809 19.5829 87.9655 19.4667 88.2926C19.0967 89.3436 16.4585 88.9271 16.4781 87.8242C16.5121 86.035 18.3085 79.7951 19.0628 76.8762C19.3362 75.818 19.6508 75.3193 21.1791 75.3193C22.5679 75.3193 22.8736 75.9843 23.1864 76.9495C24.2338 80.1794 25.4832 85.0394 25.8586 87.8564C26.0195 89.0558 23.122 89.3436 22.845 88.373M21.7278 83.5898C21.5241 82.7283 21.3203 81.8667 21.1148 81.0052C20.9056 81.8596 20.7001 82.7158 20.4981 83.5719C20.9074 83.5773 21.3185 83.5844 21.7278 83.5898Z" fill="#F0BB67"/>
<path d="M38.9442 87.7328C38.9067 89.2039 35.9896 89.3433 35.9449 87.7328C35.8877 85.7148 35.9449 83.7665 35.9449 81.559C35.414 82.4813 34.8492 83.3858 34.3684 84.3403C34.0449 84.982 32.2217 85.0588 31.7784 84.3403C31.1295 83.2893 30.7524 82.5546 30.1572 81.4929C30.1572 83.8452 30.0964 85.5808 30.0553 87.7346C30.0285 89.2075 27.0756 89.4756 27.056 87.7346C27.0131 83.9989 27.1007 76.8062 27.3795 75.9608C27.6476 75.1475 30.1661 75.0152 30.7131 76.102C31.4656 77.5981 32.3236 78.9905 33.1315 80.4562C33.9305 79.1102 34.8778 77.3711 35.4373 76.2164C36.0057 75.0402 38.4402 75.135 38.7655 75.9626C39.0425 76.6668 39.0372 83.9989 38.9424 87.7346" fill="#F0BB67"/>
<path d="M43.7311 83.4497C43.7311 85.0263 43.7686 86.3007 43.7311 87.7467C43.6936 89.2053 40.7765 89.3429 40.7318 87.7467C40.6263 84.0664 40.9159 76.8452 41.0088 76.2857C41.1 75.7387 41.7506 75.3938 42.6086 75.3401C45.0824 75.181 47.7207 74.904 48.9236 78.141C50.0586 81.1922 46.6607 83.8448 43.7311 83.4533M45.7366 78.6058C45.1307 78.2769 44.4032 78.2358 43.7311 78.2519V80.4611C44.3942 80.5005 45.4953 80.4594 45.9153 80.0393C46.1924 79.7623 46.3318 78.9293 45.7366 78.6058Z" fill="#F0BB67"/>
<path d="M58.9153 87.885C58.8778 89.3435 55.9607 89.3435 55.916 87.885C55.8713 86.4639 55.916 84.9393 55.916 83.3896H53.36C53.36 84.9375 53.3975 86.4639 53.36 87.885C53.3224 89.3435 50.4071 89.3435 50.3607 87.885C50.2463 84.2046 50.3607 79.9666 50.3607 76.2845C50.3607 75.1101 53.0454 74.9028 53.2206 76.2845C53.3904 77.6179 53.36 78.9281 53.36 80.392H55.916C55.916 78.9299 55.8749 77.6286 55.916 76.2845C55.9607 74.7634 58.8778 74.9028 58.9153 76.2845C59.0154 79.9648 59.0101 84.2046 58.9153 87.885Z" fill="#F0BB67"/>
<path d="M66.5621 88.3712C66.4567 88.003 66.2475 86.8787 66.1528 86.5105C65.2841 86.498 64.4172 86.4855 63.5485 86.4712C63.4734 86.809 63.2983 87.9655 63.1821 88.2926C62.8103 89.3436 60.172 88.9271 60.1935 87.8242C60.2275 86.035 62.022 79.7951 62.7781 76.8762C63.0516 75.818 63.3662 75.3193 64.8944 75.3193C66.2833 75.3193 66.5889 75.9843 66.9017 76.9495C67.9492 80.1794 69.1986 85.0394 69.5757 87.8564C69.7366 89.0558 66.8392 89.3436 66.5621 88.373M65.4432 83.5898C65.2394 82.7283 65.0357 81.8667 64.8301 81.0052C64.621 81.8596 64.4154 82.7158 64.2134 83.5719C64.6245 83.5773 65.0339 83.5844 65.4432 83.5898Z" fill="#F0BB67"/>
<path d="M77.1633 88.7909C76.2427 88.16 75.66 86.8909 75.0755 86.0007C74.7931 85.57 74.1371 84.4725 73.7922 83.5823V87.8847C73.7922 89.3432 70.8768 89.3432 70.7928 87.8847C70.5819 84.2097 70.9769 76.8455 71.0699 76.2842C71.161 75.7373 71.8117 75.3923 72.6679 75.3387C75.1417 75.1796 77.7799 74.9025 78.9829 78.1396C79.73 80.1522 78.5092 81.9879 76.7504 82.8959C77.0095 83.2427 77.2383 83.6163 77.4367 84.0149C77.8729 84.8872 78.6522 86.0579 79.2814 86.671C80.4557 87.815 78.3716 89.6203 77.1615 88.7909M75.7977 78.6061C75.1917 78.2772 74.4642 78.2361 73.7922 78.2522V80.4615C74.4535 80.5008 75.5564 80.4597 75.9764 80.0396C76.2535 79.7626 76.3929 78.9296 75.7977 78.6061Z" fill="#F0BB67"/>
<path d="M92.798 87.7328C92.7605 89.2039 89.8434 89.3433 89.7987 87.7328C89.7415 85.7148 89.7987 83.7665 89.7987 81.559C89.2678 82.4813 88.703 83.3858 88.2222 84.3403C87.8986 84.982 86.0754 85.0588 85.6322 84.3403C84.9833 83.2893 84.6062 82.5546 84.0109 81.4929C84.0109 83.8452 83.9502 85.5808 83.9091 87.7346C83.8823 89.2075 80.9294 89.4756 80.9097 87.7346C80.8668 83.9989 80.9544 76.8062 81.2315 75.9608C81.4996 75.1475 84.0181 75.0152 84.5651 76.102C85.3176 77.5981 86.1773 78.9905 86.9835 80.4562C87.7824 79.1102 88.7298 77.3711 89.2893 76.2164C89.8577 75.0402 92.2921 75.135 92.6175 75.9626C92.8963 76.6668 92.8909 83.9989 92.7944 87.7346" fill="#F0BB67"/>
<path d="M36.3598 143.707L34.5544 149.938H33.6429L32.195 144.922L30.6918 149.938L29.7891 149.946L28.0464 143.707H28.9133L30.2717 148.99L31.775 143.707H32.6866L34.1165 148.972L35.4839 143.707H36.3598Z" fill="#369881"/>
<path d="M38.8083 149.593C38.3311 149.321 37.9539 148.944 37.6769 148.458C37.3998 147.971 37.2622 147.424 37.2622 146.817C37.2622 146.209 37.3998 145.662 37.6769 145.176C37.9539 144.69 38.3311 144.313 38.8083 144.041C39.2856 143.769 39.8129 143.633 40.3902 143.633C40.9676 143.633 41.5038 143.769 41.981 144.041C42.4583 144.313 42.8337 144.688 43.1071 145.172C43.3806 145.655 43.5182 146.204 43.5182 146.817C43.5182 147.43 43.3806 147.979 43.1071 148.461C42.8337 148.944 42.4583 149.321 41.981 149.593C41.5038 149.864 40.9729 150 40.3902 150C39.8075 150 39.2856 149.864 38.8083 149.593ZM41.5664 148.99C41.9149 148.788 42.1884 148.499 42.3886 148.123C42.5888 147.748 42.6871 147.314 42.6871 146.819C42.6871 146.323 42.587 145.882 42.3886 145.508C42.1884 145.137 41.9167 144.849 41.5699 144.645C41.225 144.443 40.8317 144.341 40.3902 144.341C39.9487 144.341 39.5555 144.443 39.2105 144.645C38.8655 144.847 38.5921 145.135 38.3919 145.508C38.1917 145.88 38.0934 146.318 38.0934 146.819C38.0934 147.319 38.1935 147.748 38.3919 148.123C38.5921 148.499 38.8655 148.788 39.2141 148.99C39.5626 149.192 39.9541 149.294 40.3902 149.294C40.8264 149.294 41.216 149.192 41.5664 148.99Z" fill="#369881"/>
<path d="M51.5923 144.18H48.4553V146.218C48.593 146.027 48.795 145.871 49.0631 145.748C49.3312 145.626 49.6208 145.564 49.93 145.564C50.4251 145.564 50.8273 145.665 51.1365 145.873C51.4457 146.078 51.6692 146.343 51.8032 146.668C51.9373 146.994 52.0052 147.337 52.0052 147.701C52.0052 148.13 51.9248 148.515 51.7639 148.854C51.603 149.194 51.3581 149.462 51.0257 149.659C50.695 149.855 50.2857 149.954 49.7959 149.954C49.1703 149.954 48.6627 149.793 48.2766 149.471C47.8887 149.149 47.6546 148.72 47.5706 148.184H48.366C48.4428 148.524 48.6073 148.788 48.8575 148.979C49.1078 149.171 49.4241 149.265 49.8049 149.265C50.275 149.265 50.6307 149.124 50.8684 148.84C51.1061 148.558 51.2259 148.182 51.2259 147.717C51.2259 147.253 51.1061 146.893 50.8684 146.64C50.6307 146.386 50.2785 146.261 49.8138 146.261C49.4974 146.261 49.2222 146.338 48.9862 146.49C48.7503 146.641 48.5805 146.849 48.4714 147.11H47.7028V143.463H51.5905V144.178L51.5923 144.18Z" fill="#369881"/>
<path d="M55.0779 147.788C55.5069 147.398 55.8697 146.989 56.1647 146.563C56.4596 146.136 56.6079 145.718 56.6079 145.307C56.6079 144.919 56.5132 144.613 56.3255 144.39C56.1378 144.166 55.8358 144.054 55.4175 144.054C54.9993 144.054 54.6972 144.181 54.4737 144.434C54.2503 144.688 54.1288 145.026 54.1109 145.45H53.3244C53.3477 144.781 53.5514 144.266 53.9322 143.904C54.3129 143.541 54.8044 143.358 55.4068 143.358C56.0092 143.358 56.5078 143.528 56.8689 143.868C57.23 144.207 57.4105 144.676 57.4105 145.271C57.4105 145.766 57.2621 146.247 56.9672 146.715C56.6723 147.184 56.3363 147.595 55.9609 147.949C55.5855 148.302 55.1065 148.715 54.522 149.185H57.5964V149.865H53.2976V149.284C54.0537 148.676 54.6471 148.177 55.0761 147.786" fill="#369881"/>
<path d="M60.5293 147.788C60.9583 147.398 61.3211 146.989 61.6161 146.563C61.911 146.136 62.0594 145.718 62.0594 145.307C62.0594 144.919 61.9646 144.613 61.7769 144.39C61.5893 144.166 61.2872 144.054 60.8689 144.054C60.4507 144.054 60.1486 144.181 59.9252 144.434C59.7017 144.688 59.5802 145.026 59.5623 145.45H58.7758C58.7991 144.781 59.0028 144.266 59.3836 143.904C59.7643 143.541 60.2558 143.358 60.8582 143.358C61.4606 143.358 61.9593 143.528 62.3203 143.868C62.6814 144.207 62.8619 144.676 62.8619 145.271C62.8619 145.766 62.7136 146.247 62.4186 146.715C62.1237 147.184 61.7877 147.595 61.4123 147.949C61.0369 148.302 60.5579 148.715 59.9734 149.185H63.0478V149.865H58.749V149.284C59.5051 148.676 60.0985 148.177 60.5275 147.786" fill="#369881"/>
</g>
<defs>
<clipPath id="clip0_23_80">
<rect width="98.629" height="150" fill="white" transform="translate(0.412598)"/>
</clipPath>
</defs>
</svg>
