<svg width="137" height="110" viewBox="0 0 137 110" fill="none" xmlns="http://www.w3.org/2000/svg">
<path d="M15.5927 61.4245L5.69503 68.2411L15.2183 68.3656L15.1855 70.8323L0 70.6341L0.0190864 69.169L9.67592 62.5215L0.109974 62.3952L0.142694 59.9185L15.61 60.1212L15.5927 61.4245Z" fill="#2E2C29"/>
<path d="M20.426 42.6609L19.5681 44.9758L19.2109 44.8467C19.239 45.8405 19.0944 46.8317 18.7837 47.776C18.2752 49.1362 17.2521 50.2418 15.9354 50.854C14.6187 51.4662 13.1139 51.5359 11.7462 51.048C11.072 50.8013 10.4533 50.4236 9.92569 49.9367C9.39811 49.4498 8.97211 48.8633 8.67227 48.2109C8.37242 47.5586 8.20465 46.8534 8.17862 46.1359C8.1526 45.4184 8.26884 44.7029 8.52064 44.0306C8.916 43.1015 9.49824 42.2637 10.2311 41.5693L11.0873 39.2544L20.426 42.6609ZM15.3027 43.4171L14.0212 42.949C13.4487 42.8682 12.8652 42.9633 12.3479 43.2217C11.9928 43.3791 11.6729 43.6062 11.4072 43.8895C11.1414 44.1728 10.9353 44.5065 10.8008 44.871C10.6664 45.2354 10.6065 45.6231 10.6246 46.0111C10.6428 46.3991 10.7386 46.7795 10.9064 47.1298C11.2521 47.8548 11.868 48.4156 12.6221 48.692C13.3763 48.9684 14.2086 48.9384 14.941 48.6086C15.2997 48.4512 15.6224 48.2222 15.8894 47.9356C16.1563 47.6489 16.3619 47.3107 16.4933 46.9417C16.6321 46.5812 16.6944 46.1957 16.676 45.8098C16.6577 45.424 16.5593 45.0461 16.387 44.7004C16.1645 44.1723 15.7862 43.7246 15.3027 43.4171Z" fill="#2E2C29"/>
<path d="M16.4797 29.9091L17.6613 28.4786C17.6801 27.9533 17.8747 27.4495 18.2139 27.048C18.4302 26.74 18.7062 26.4787 19.0255 26.2795C19.3448 26.0803 19.7008 25.9472 20.0725 25.8883C20.0624 25.512 20.1273 25.1375 20.2633 24.7866C20.3994 24.4356 20.604 24.1153 20.8651 23.8442C21.1412 23.4978 21.4852 23.2115 21.8759 23.0027C22.2666 22.7939 22.6958 22.667 23.1373 22.6299C23.9606 22.5546 24.7821 22.7917 25.4385 23.2943L31.0463 27.8678L29.4622 29.7764L23.5717 24.9867C23.2514 25.0009 22.9468 25.13 22.7137 25.3502C22.6432 25.4355 22.5907 25.5343 22.5594 25.6406C22.5282 25.7468 22.5188 25.8583 22.532 25.9682C22.5449 26.092 22.5835 26.2117 22.6453 26.3197C22.7071 26.4277 22.7908 26.5216 22.891 26.5954L28.3888 31.0798L26.8191 32.9775L21.1614 28.3631C21.0022 28.2645 20.8121 28.2286 20.6279 28.2623C20.4087 28.2809 20.2058 28.3855 20.0634 28.5531C19.992 28.6387 19.9391 28.738 19.9078 28.845C19.8765 28.952 19.8676 29.0642 19.8817 29.1748C19.8991 29.3717 19.9861 29.556 20.1271 29.6947L25.7412 34.2781L24.1643 36.1868L16.4797 29.9091Z" fill="#2E2C29"/>
<path d="M36.6125 17.6096L39.111 21.5577L37.0069 22.8692L28.927 10.105L32.7207 7.74187C33.8262 7.22241 35.073 7.08463 36.2653 7.35014C37.2724 7.57864 38.1886 8.10188 38.8971 8.85316C39.6056 9.60443 40.0744 10.5497 40.2435 11.5684C40.4127 12.5872 40.2747 13.6332 39.847 14.5731C39.4193 15.5131 38.7214 16.3044 37.8422 16.8461L36.6125 17.6096ZM32.3071 10.8084L35.3319 15.5864L36.5625 14.8184C36.8744 14.6294 37.1442 14.3784 37.3551 14.0809C37.566 13.7834 37.7135 13.4457 37.7886 13.0888C37.948 12.3547 37.8122 11.5873 37.4105 10.9524C37.0088 10.3176 36.3735 9.86624 35.6418 9.69596C35.2867 9.60744 34.9172 9.59232 34.5561 9.65155C34.1949 9.71079 33.8496 9.84311 33.5414 10.0404L32.3071 10.8084Z" fill="#2E2C29"/>
<path d="M47.6699 0.636215L50.0703 0L51.3827 4.88977C51.6571 4.55852 52.0325 4.3264 52.4515 4.22901C52.5351 4.2072 52.6197 4.18811 52.7051 4.17266C53.2365 4.01114 53.7952 3.95864 54.3474 4.0183C54.8997 4.07796 55.4342 4.24856 55.9189 4.51986C56.3847 4.78076 56.7936 5.13231 57.1214 5.55378C57.4493 5.97524 57.6893 6.45809 57.8275 6.97383L59.4744 13.1124L57.0532 13.7486L55.4281 7.69366C55.3464 7.36399 55.1684 7.06612 54.9167 6.8381C54.665 6.61008 54.351 6.46225 54.0149 6.41348C53.6788 6.36471 53.3357 6.41722 53.0296 6.5643C52.7234 6.71137 52.4681 6.94635 52.2961 7.23922C52.2212 7.34905 52.1584 7.46668 52.1089 7.59005L53.9793 14.5612L51.579 15.1974L47.6699 0.636215Z" fill="#2E2C29"/>
<path d="M77.6979 12.6579L75.2167 12.5352L75.2358 12.159C74.2879 12.4814 73.2921 12.6403 72.291 12.6289C71.5664 12.6046 70.8542 12.4331 70.198 12.1248C69.5417 11.8165 68.9551 11.3779 68.4737 10.8356C67.9877 10.3126 67.6113 9.69758 67.3668 9.02676C67.1223 8.35594 67.0146 7.64294 67.0501 6.92983C67.0856 6.21672 67.2635 5.51794 67.5734 4.87471C67.8834 4.23149 68.319 3.65685 68.8546 3.1847C69.3894 2.69578 70.0176 2.32013 70.7015 2.08037C71.3853 1.84061 72.1106 1.74169 72.8336 1.78957C73.8428 1.88746 74.8217 2.18892 75.7111 2.67573L78.1924 2.79661L77.6979 12.6579ZM75.4394 8.02993L75.5066 6.67389C75.3796 6.01044 75.0366 5.40763 74.5313 4.95935C74.026 4.51106 73.3866 4.24246 72.7127 4.19537C71.9231 4.16857 71.1545 4.45333 70.5729 4.9882C69.9914 5.52307 69.6434 6.26516 69.6042 7.05432C69.5649 7.84348 69.8375 8.61643 70.3631 9.20637C70.8888 9.7963 71.6253 10.1559 72.4137 10.2076C72.8016 10.2316 73.1903 10.1756 73.5557 10.0432C73.921 9.91079 74.2553 9.70472 74.5378 9.43779C74.9754 9.07188 75.2901 8.58046 75.4394 8.02993Z" fill="#2E2C29"/>
<path d="M92.5236 8.75624C91.8265 8.60169 91.1006 8.63939 90.4232 8.86531C90.0821 9.02393 89.7757 9.24822 89.5213 9.52534C89.267 9.80246 89.0697 10.127 88.9408 10.4804L87.2948 15.2702L84.9436 14.4749L88.1537 5.12891L90.505 5.92418L90.1833 6.86396C90.6295 6.59949 91.1352 6.45163 91.6537 6.434C92.1721 6.41637 92.6867 6.52954 93.1499 6.76307L92.5236 8.75624Z" fill="#2E2C29"/>
<path d="M101.83 10.8101L103.36 11.868C103.888 11.8455 104.408 11.9976 104.841 12.3006C105.166 12.4887 105.45 12.7404 105.675 13.0408C105.901 13.3411 106.063 13.6838 106.153 14.0484C106.913 13.9672 107.673 14.1908 108.267 14.6701C108.981 15.1435 109.479 15.8804 109.651 16.7196C109.823 17.5588 109.655 18.432 109.185 19.1481L105.038 25.0558L102.991 23.6407L107.334 17.4303C107.293 17.1153 107.141 16.8252 106.905 16.6123C106.813 16.5491 106.709 16.505 106.6 16.4825C106.491 16.4601 106.378 16.4597 106.269 16.4815C106.146 16.5042 106.03 16.5519 105.926 16.6217C105.823 16.6914 105.735 16.7817 105.668 16.8868L101.602 22.6846L99.5722 21.2813L103.753 15.3163C103.838 15.1509 103.859 14.9598 103.811 14.78C103.793 14.6712 103.753 14.5671 103.694 14.4742C103.634 14.3813 103.557 14.3015 103.465 14.2396C103.374 14.1778 103.271 14.1352 103.163 14.1145C103.054 14.0939 102.943 14.0955 102.835 14.1193C102.64 14.1513 102.463 14.2515 102.334 14.402L98.1817 20.3224L96.1431 18.9136L101.83 10.8101Z" fill="#2E2C29"/>
<path d="M112.709 66.25C112.773 74.795 110.297 83.1664 105.596 90.3023C100.895 97.4381 94.1799 103.017 86.3035 106.331C78.4271 109.645 69.7438 110.545 61.3551 108.917C52.9664 107.289 45.2503 103.206 39.1855 97.1859C33.1207 91.1659 28.9806 83.4803 27.2902 75.1039C25.5998 66.7276 26.4353 58.0378 29.6909 50.137C32.9464 42.2362 38.4752 35.4803 45.5759 30.7263C52.6767 25.9723 61.0294 23.4344 69.5747 23.4346C71.1647 23.4341 72.7537 23.52 74.3345 23.6918L68.4749 33.5149L66.1255 37.4495C60.5866 38.1512 55.3678 40.4359 51.0949 44.0295C46.822 47.6231 43.6765 52.373 42.0357 57.7095C40.3948 63.0461 40.3283 68.7427 41.844 74.1162C43.3597 79.4896 46.3934 84.3117 50.5811 88.0042C54.7689 91.6966 59.9329 94.1026 65.4538 94.9335C70.9748 95.7645 76.6182 94.9851 81.7073 92.689C86.7964 90.3928 91.1151 86.6773 94.1453 81.988C97.1756 77.2988 98.7888 71.835 98.7915 66.2519C98.7933 64.8646 98.6931 63.479 98.4915 62.1065H112.506C112.641 63.4704 112.709 64.8516 112.709 66.25Z" fill="#2E2C29"/>
<path d="M136.332 18.0791L112.05 58.7633L111.921 58.9777H97.8664C97.3028 56.8078 96.4849 54.7119 95.4297 52.7338C93.6954 49.4694 91.3537 46.5663 88.5304 44.1803L67.9843 78.6032H47.7664L72.3697 37.381L79.947 24.6812C89.1506 26.9444 97.355 32.1702 103.297 39.5541L116.112 18.0809H136.331L136.332 18.0791Z" fill="#348F41"/>
</svg>
