<svg width="84" height="70" viewBox="0 0 84 70" fill="none" xmlns="http://www.w3.org/2000/svg">
<g clip-path="url(#clip0_23_127)">
<path d="M79.3924 65.4813C79.5703 65.483 79.7467 65.4486 79.9106 65.38C80.0745 65.3115 80.2224 65.2103 80.3452 65.0828C80.468 64.9553 80.563 64.8042 80.6244 64.6388C80.6857 64.4734 80.712 64.2974 80.7018 64.1215C80.7018 63.1571 80.1142 62.6963 78.9086 62.6963H76.9607V67.7454H77.6934V65.5445H78.5936L78.6143 65.5713L80.0114 67.7454H80.7949L79.2917 65.4952L79.3924 65.4813ZM78.545 64.9755H77.6955V63.2685H78.7723C79.3285 63.2685 79.9627 63.3585 79.9627 64.0797C79.9627 64.9091 79.3209 64.9755 78.5407 64.9755" fill="#0A66C2"/>
<path d="M60.2808 59.1537H49.8917V43.0441C49.8917 39.2026 49.8224 34.2574 44.4882 34.2574C39.0772 34.2574 38.2493 38.4428 38.2493 42.7644V59.1527H27.86V26.0247H37.8337V30.552H37.9733C38.9714 28.8622 40.4137 27.4721 42.1466 26.5297C43.8795 25.5874 45.8381 25.128 47.8138 25.2006C58.3437 25.2006 60.2852 32.0586 60.2852 40.9803L60.2808 59.1537ZM16.1376 21.4963C14.9452 21.4965 13.7794 21.1466 12.7879 20.4908C11.7963 19.8351 11.0234 18.9029 10.5669 17.8122C10.1104 16.7214 9.99075 15.5212 10.2232 14.3631C10.4556 13.2051 11.0296 12.1413 11.8726 11.3063C12.7157 10.4713 13.7898 9.90256 14.9593 9.67201C16.1287 9.44147 17.341 9.55947 18.4427 10.0111C19.5444 10.4627 20.4862 11.2277 21.1488 12.2093C21.8115 13.1909 22.1653 14.345 22.1655 15.5256C22.1656 16.3096 22.0098 17.0859 21.707 17.8102C21.4041 18.5345 20.9602 19.1927 20.4004 19.7471C19.8407 20.3015 19.1761 20.7413 18.4447 21.0415C17.7133 21.3416 16.9293 21.4962 16.1376 21.4963ZM21.3322 59.1537H10.9322V26.0247H21.3322V59.1537ZM65.4603 0.00424171H5.71164C4.35551 -0.0109114 3.04872 0.50765 2.07854 1.44598C1.10836 2.3843 0.554148 3.66562 0.537598 5.00837V64.414C0.553582 65.7574 1.10747 67.0396 2.07762 67.9789C3.04777 68.9182 4.35484 69.4378 5.71164 69.4235H65.4603C66.8198 69.4404 68.1305 68.9223 69.1045 67.983C70.0785 67.0437 70.636 65.7601 70.6549 64.414V5.00409C70.6355 3.65867 70.0775 2.37589 69.1035 1.43759C68.1295 0.499289 66.8191 -0.0177907 65.4603 -4.62165e-05" fill="#0A66C2"/>
<path d="M78.6339 60.4473C77.3699 60.4593 76.1621 60.9665 75.2747 61.8579C74.3874 62.7492 73.8927 63.9523 73.8987 65.2039C73.9048 66.4555 74.4113 67.6538 75.3072 68.5367C76.2032 69.4196 77.4158 69.9152 78.6799 69.9152C79.944 69.9152 81.1566 69.4196 82.0525 68.5367C82.9485 67.6538 83.455 66.4555 83.4611 65.2039C83.4671 63.9523 82.9724 62.7492 82.085 61.8579C81.1977 60.9665 79.9899 60.4593 78.7259 60.4473H78.6339ZM78.6339 69.3733C77.8048 69.3869 76.9903 69.1568 76.2933 68.7121C75.5963 68.2674 75.0481 67.6281 74.7181 66.8749C74.388 66.1217 74.291 65.2885 74.4392 64.4807C74.5874 63.6729 74.9742 62.9267 75.5507 62.3366C76.1272 61.7465 76.8674 61.3388 77.6779 61.1653C78.4883 60.9917 79.3326 61.06 80.1039 61.3616C80.8751 61.6631 81.5387 62.1843 82.0108 62.8592C82.4829 63.5342 82.7422 64.3326 82.756 65.1535C82.756 65.1771 82.756 65.1996 82.756 65.2232C82.7792 66.3001 82.3695 67.342 81.617 68.1199C80.8645 68.8977 79.8308 69.3478 78.7432 69.3711H78.635" fill="#0A66C2"/>
</g>
<defs>
<clipPath id="clip0_23_127">
<rect width="82.9231" height="70" fill="white" transform="translate(0.538574)"/>
</clipPath>
</defs>
</svg>
