<svg width="1497" height="335" viewBox="0 0 1497 335" fill="none" xmlns="http://www.w3.org/2000/svg">
<path d="M156.007 253.623L41.3155 92.8778V249H0.595703V0.0579834H24.7786L136.625 156.891V0.0579834H177.522V253.623H156.007Z" fill="white"/>
<path d="M389.301 249H348.581V242.776C330.088 249.533 314.144 252.912 300.749 252.912C275.736 252.912 254.398 244.08 236.735 226.417C219.072 208.754 210.24 187.713 210.24 163.293C210.24 138.517 219.072 117.416 236.735 99.9904C254.398 82.4459 275.736 73.6737 300.749 73.6737C314.144 73.6737 330.088 77.7635 348.581 85.943H389.301V249ZM348.581 174.495V152.09C346.803 143.2 342.239 135.139 334.889 127.907C325.406 118.305 314.026 113.504 300.749 113.504C287.353 113.504 275.795 118.365 266.075 128.085C256.473 137.687 251.672 149.423 251.672 163.293C251.672 177.162 256.473 188.898 266.075 198.5C275.677 208.102 287.235 212.903 300.749 212.903C314.026 212.903 325.406 208.102 334.889 198.5C342.239 191.269 346.803 183.267 348.581 174.495Z" fill="white"/>
<path d="M422.73 85.943H453.315C460.427 80.6085 468.429 77.9413 477.32 77.9413C492.612 77.9413 503.992 81.7347 511.46 89.3215C519.166 81.7347 530.605 77.9413 545.779 77.9413C561.189 77.9413 574.229 83.2758 584.898 93.9447C594.619 104.021 599.775 116.053 600.368 130.041V249H559.471L559.293 124.173C554.077 119.432 549.572 117.061 545.779 117.061C542.104 117.061 538.844 118.483 535.999 121.328C533.154 124.055 531.731 127.73 531.731 132.353V249H491.189V128.974C491.071 126.485 489.648 123.877 486.922 121.15C484.077 118.424 480.876 117.061 477.32 117.061C473.645 117.061 470.385 118.483 467.54 121.328C465.169 123.699 463.806 126.544 463.45 129.863V249H422.73V85.943Z" fill="white"/>
<path d="M633.798 85.943H674.517V91.9887C693.129 85.3503 709.073 82.031 722.35 82.031C747.481 82.031 768.819 90.8626 786.363 108.526C803.908 126.189 812.68 147.23 812.68 171.65C812.68 196.426 803.908 217.586 786.363 235.13C768.819 252.556 747.481 261.269 722.35 261.269C709.073 261.269 693.129 257.298 674.517 249.356V334.885H633.798V85.943ZM674.517 183.386C676.295 192.04 680.8 199.923 688.031 207.035C697.515 216.638 708.954 221.439 722.35 221.439C735.745 221.439 747.244 216.638 756.846 207.035C766.448 197.315 771.249 185.52 771.249 171.65C771.249 157.781 766.448 146.045 756.846 136.443C747.244 126.841 735.745 122.04 722.35 122.04C708.954 122.04 697.515 126.841 688.031 136.443C680.8 143.555 676.295 151.32 674.517 159.737V183.386Z" fill="white"/>
<path d="M840.775 0.0579834H881.495V83.6314C886.948 79.6009 893.527 77.5856 901.232 77.5856C902.655 77.5856 904.077 77.6449 905.5 77.7635C925.652 77.7635 942.13 84.1648 954.933 96.9676C967.735 109.652 974.315 125.359 974.67 144.089V249H933.595V145.511C933.595 137.45 930.75 130.693 925.06 125.24C919.488 119.669 912.968 116.883 905.5 116.883C898.032 116.883 891.512 119.609 885.94 125.062C883.451 127.433 881.969 129.034 881.495 129.863V249H840.775V0.0579834Z" fill="white"/>
<path d="M1183.78 249H1143.06V242.776C1124.57 249.533 1108.62 252.912 1095.23 252.912C1070.22 252.912 1048.88 244.08 1031.22 226.417C1013.55 208.754 1004.72 187.713 1004.72 163.293C1004.72 138.517 1013.55 117.416 1031.22 99.9904C1048.88 82.4459 1070.22 73.6737 1095.23 73.6737C1108.62 73.6737 1124.57 77.7635 1143.06 85.943H1183.78V249ZM1143.06 174.495V152.09C1141.28 143.2 1136.72 135.139 1129.37 127.907C1119.89 118.305 1108.51 113.504 1095.23 113.504C1081.83 113.504 1070.28 118.365 1060.56 128.085C1050.95 137.687 1046.15 149.423 1046.15 163.293C1046.15 177.162 1050.95 188.898 1060.56 198.5C1070.16 208.102 1081.72 212.903 1095.23 212.903C1108.51 212.903 1119.89 208.102 1129.37 198.5C1136.72 191.269 1141.28 183.267 1143.06 174.495Z" fill="white"/>
<path d="M1300.43 119.55C1284.31 122.751 1273.64 127.018 1268.42 132.353C1259.29 141.362 1254.49 152.387 1254.02 165.427V249H1213.3V85.943H1254.02V102.302C1262.08 89.4993 1270.44 82.683 1279.09 81.8532L1300.43 119.55Z" fill="white"/>
<path d="M1318.57 85.943H1349.15C1356.26 80.6085 1364.26 77.9413 1373.16 77.9413C1388.45 77.9413 1399.83 81.7347 1407.3 89.3215C1415 81.7347 1426.44 77.9413 1441.61 77.9413C1457.03 77.9413 1470.06 83.2758 1480.73 93.9447C1490.45 104.021 1495.61 116.053 1496.2 130.041V249H1455.31L1455.13 124.173C1449.91 119.432 1445.41 117.061 1441.61 117.061C1437.94 117.061 1434.68 118.483 1431.83 121.328C1428.99 124.055 1427.57 127.73 1427.57 132.353V249H1387.02V128.974C1386.91 126.485 1385.48 123.877 1382.76 121.15C1379.91 118.424 1376.71 117.061 1373.16 117.061C1369.48 117.061 1366.22 118.483 1363.38 121.328C1361 123.699 1359.64 126.544 1359.29 129.863V249H1318.57V85.943Z" fill="white"/>
</svg>
