<svg width="60" height="50" viewBox="0 0 60 50" fill="none" xmlns="http://www.w3.org/2000/svg">
<path d="M22.1099 33.1653C18.8851 33.147 15.6603 33.1653 12.4438 33.1653H11.8271C11.9388 32.9453 11.9938 32.807 12.0771 32.6787C17.7268 23.1603 23.3738 13.6385 29.0179 4.11349C29.0481 4.03405 29.0943 3.96168 29.1536 3.9009C29.213 3.84011 29.2842 3.7922 29.3629 3.76017C29.4428 3.72771 29.5287 3.71256 29.6149 3.71572C29.701 3.71888 29.7856 3.74028 29.8629 3.7785C34.5183 5.05341 38.6687 7.72994 41.7506 11.4448C41.8139 11.5164 41.8739 11.5914 41.9406 11.6614C41.9939 11.7014 42.0472 11.7398 42.1072 11.7731C42.2206 11.6064 42.3372 11.4398 42.4406 11.2615C44.5671 7.6683 46.6937 4.0746 48.8202 0.480343C48.893 0.324664 49.0122 0.195299 49.1613 0.109971C49.3105 0.0246419 49.4824 -0.0124764 49.6535 0.00370073H59.998C59.883 0.228689 59.813 0.378681 59.7263 0.522007C55.4899 7.65164 51.2601 14.7818 47.037 21.9126C46.9735 22.0551 46.8676 22.1745 46.7336 22.2544C46.5996 22.3344 46.4442 22.371 46.2887 22.3592C44.0755 22.3425 41.8611 22.3425 39.6457 22.3592C39.5729 22.372 39.4983 22.3698 39.4264 22.3528C39.3545 22.3358 39.2868 22.3044 39.2274 22.2605C39.168 22.2165 39.1182 22.1609 39.0809 22.0971C39.0437 22.0333 39.0198 21.9626 39.0107 21.8892C38.1873 19.0726 36.595 16.5414 34.4126 14.5796C34.3193 14.4929 34.221 14.413 34.1243 14.3296C34.0719 14.2985 34.016 14.2739 33.9577 14.2563C33.8477 14.423 33.736 14.5896 33.6243 14.7663C30.089 20.7226 26.5553 26.684 23.0232 32.6503C22.9485 32.8079 22.8305 32.941 22.6829 33.034C22.5354 33.127 22.3644 33.176 22.1899 33.1753L22.1099 33.1653Z" fill="#22702F"/>
<path d="M7.44495 43.6153C3.83671 40.2367 1.38453 35.8073 0.436591 30.9559C-0.511344 26.1046 0.0931489 21.0779 2.16424 16.5896C4.23533 12.1014 7.66774 8.37961 11.9741 5.95284C16.2805 3.52607 21.2419 2.51763 26.154 3.0707C26.059 3.23736 25.9873 3.38568 25.8923 3.52567C24.5791 5.74389 23.2591 7.95211 21.9575 10.177C21.8905 10.3104 21.7909 10.4248 21.668 10.5096C21.5451 10.5943 21.4028 10.6468 21.2542 10.662C17.7122 11.1777 14.4466 12.87 11.983 15.4666C9.51929 18.0632 8.0008 21.4131 7.67181 24.9773C7.34283 28.5416 8.22247 32.1128 10.1692 35.1165C12.1159 38.1202 15.0166 40.3817 18.4044 41.537C21.1236 42.5197 24.0626 42.7267 26.8928 42.1348C29.7229 41.5429 32.3326 40.1755 34.4302 38.1855C36.0085 36.7968 37.2794 35.0939 38.1617 33.1858H46.2129C46.0596 33.7058 45.8796 34.2207 45.6913 34.7341C43.8892 39.6014 40.5068 43.7238 36.0851 46.4418C32.3632 48.7728 28.059 50.0061 23.6674 49.9999C17.647 50.0006 11.85 47.7191 7.44495 43.6153Z" fill="#4CA83A"/>
</svg>
