<svg width="63" height="51" viewBox="0 0 63 51" fill="none" xmlns="http://www.w3.org/2000/svg">
<path d="M7.20515 28.8485L2.69419 31.9552L7.03448 32.012L7.01957 33.1362L0.0986328 33.0459L0.107332 32.3781L4.50852 29.3485L0.148754 29.2909L0.163667 28.1621L7.21302 28.2545L7.20515 28.8485Z" fill="#2E2C29"/>
<path d="M9.40796 20.2967L9.01692 21.3517L8.85413 21.2929C8.86694 21.7458 8.80106 22.1975 8.65944 22.628C8.42771 23.2479 7.96143 23.7518 7.36131 24.0308C6.76119 24.3098 6.0754 24.3415 5.45207 24.1192C5.14478 24.0068 4.86278 23.8346 4.62233 23.6127C4.38188 23.3908 4.18773 23.1235 4.05107 22.8262C3.91442 22.5289 3.83795 22.2074 3.82609 21.8804C3.81423 21.5534 3.86721 21.2273 3.98197 20.9209C4.16216 20.4975 4.42752 20.1157 4.76155 19.7992L5.15175 18.7441L9.40796 20.2967ZM7.07295 20.6413L6.48888 20.428C6.22797 20.3912 5.96202 20.4345 5.72629 20.5523C5.56445 20.624 5.41865 20.7275 5.29753 20.8566C5.17642 20.9857 5.08245 21.1378 5.02119 21.3039C4.95993 21.47 4.93262 21.6467 4.94089 21.8236C4.94916 22.0004 4.99283 22.1738 5.06932 22.3334C5.22688 22.6638 5.50757 22.9194 5.85126 23.0454C6.19496 23.1714 6.57432 23.1577 6.90808 23.0074C7.07157 22.9357 7.21867 22.8313 7.34034 22.7007C7.46201 22.57 7.55568 22.4159 7.61559 22.2477C7.67885 22.0834 7.70721 21.9077 7.69887 21.7318C7.69052 21.556 7.64565 21.3838 7.56712 21.2262C7.46571 20.9855 7.29332 20.7815 7.07295 20.6413Z" fill="#2E2C29"/>
<path d="M7.60962 14.4849L8.14812 13.8329C8.15668 13.5935 8.24537 13.364 8.39997 13.181C8.49856 13.0406 8.62436 12.9215 8.76987 12.8307C8.91539 12.7399 9.07767 12.6793 9.24707 12.6524C9.24246 12.4809 9.27202 12.3102 9.33403 12.1503C9.39605 11.9903 9.48927 11.8443 9.60828 11.7208C9.73414 11.5629 9.8909 11.4324 10.069 11.3373C10.247 11.2421 10.4427 11.1843 10.6438 11.1674C11.0191 11.133 11.3935 11.2411 11.6927 11.4702L14.2485 13.5546L13.5265 14.4245L10.8418 12.2415C10.6958 12.248 10.5571 12.3068 10.4508 12.4072C10.4187 12.4461 10.3947 12.4911 10.3805 12.5395C10.3663 12.5879 10.362 12.6387 10.368 12.6888C10.3739 12.7453 10.3915 12.7998 10.4196 12.849C10.4478 12.8982 10.4859 12.941 10.5316 12.9747L13.0373 15.0185L12.3219 15.8834L9.74331 13.7803C9.67076 13.7354 9.58411 13.719 9.50016 13.7344C9.40029 13.7429 9.30782 13.7905 9.24292 13.8669C9.21038 13.9059 9.18623 13.9512 9.17198 14C9.15772 14.0487 9.15367 14.0999 9.16008 14.1503C9.16801 14.24 9.20766 14.324 9.27192 14.3872L11.8306 16.4762L11.1119 17.346L7.60962 14.4849Z" fill="#2E2C29"/>
<path d="M16.7852 8.87948L17.9239 10.6789L16.965 11.2766L13.2825 5.45919L15.0115 4.38219C15.5153 4.14545 16.0835 4.08265 16.627 4.20366C17.0859 4.3078 17.5035 4.54627 17.8264 4.88867C18.1494 5.23107 18.363 5.66189 18.4401 6.12618C18.5172 6.59047 18.4543 7.06721 18.2593 7.49561C18.0644 7.924 17.7463 8.28463 17.3456 8.53153L16.7852 8.87948ZM14.823 5.7798L16.2015 7.95741L16.7624 7.60738C16.9046 7.52126 17.0275 7.40685 17.1236 7.27125C17.2198 7.13565 17.287 6.98176 17.3212 6.81911C17.3939 6.48451 17.332 6.13476 17.1489 5.84543C16.9658 5.55609 16.6763 5.3504 16.3428 5.27279C16.1809 5.23244 16.0126 5.22555 15.848 5.25255C15.6834 5.27954 15.526 5.33985 15.3855 5.42978L14.823 5.7798Z" fill="#2E2C29"/>
<path d="M21.8247 1.14348L22.9187 0.853516L23.5168 3.08207C23.6419 2.9311 23.813 2.82531 24.004 2.78093C24.0421 2.77098 24.0806 2.76228 24.1195 2.75524C24.3617 2.68163 24.6163 2.6577 24.868 2.68489C25.1197 2.71208 25.3633 2.78983 25.5842 2.91348C25.7966 3.03239 25.9829 3.19261 26.1323 3.3847C26.2817 3.57678 26.3911 3.79684 26.4541 4.0319L27.2047 6.8296L26.1012 7.11956L25.3606 4.35997C25.3233 4.20972 25.2422 4.07396 25.1275 3.97004C25.0128 3.86612 24.8697 3.79874 24.7165 3.77652C24.5633 3.75429 24.4069 3.77822 24.2674 3.84525C24.1279 3.91228 24.0115 4.01937 23.9331 4.15285C23.899 4.20291 23.8704 4.25652 23.8478 4.31275L24.7003 7.48989L23.6063 7.77985L21.8247 1.14348Z" fill="#2E2C29"/>
<path d="M35.5102 6.62277L34.3793 6.56685L34.388 6.39536C33.956 6.54232 33.5022 6.61473 33.0459 6.60951C32.7156 6.59845 32.3911 6.52029 32.092 6.37979C31.7929 6.23928 31.5255 6.03938 31.3062 5.79224C31.0846 5.55387 30.9131 5.27356 30.8016 4.96783C30.6902 4.66209 30.6411 4.33714 30.6573 4.01213C30.6735 3.68712 30.7546 3.36865 30.8958 3.07549C31.0371 2.78234 31.2356 2.52044 31.4797 2.30525C31.7235 2.08243 32.0098 1.91122 32.3215 1.80195C32.6331 1.69267 32.9637 1.64759 33.2932 1.66941C33.7532 1.71403 34.1993 1.85142 34.6047 2.07329L35.7355 2.12838L35.5102 6.62277ZM34.4808 4.51351L34.5115 3.89548C34.4535 3.59311 34.2973 3.31837 34.067 3.11407C33.8366 2.90976 33.5452 2.78734 33.2381 2.76588C32.8782 2.75366 32.5279 2.88344 32.2629 3.12722C31.9978 3.37099 31.8392 3.7092 31.8214 4.06887C31.8035 4.42853 31.9277 4.78081 32.1673 5.04968C32.4068 5.31855 32.7425 5.48245 33.1018 5.50601C33.2786 5.51693 33.4558 5.49143 33.6223 5.43108C33.7888 5.37073 33.9412 5.27681 34.0699 5.15515C34.2693 4.98839 34.4128 4.76442 34.4808 4.51351Z" fill="#2E2C29"/>
<path d="M42.2672 4.84411C41.9495 4.77367 41.6186 4.79085 41.3099 4.89382C41.1544 4.96611 41.0148 5.06833 40.8988 5.19463C40.7829 5.32093 40.693 5.46884 40.6343 5.6299L39.8841 7.81289L38.8125 7.45044L40.2755 3.19092L41.3472 3.55337L41.2005 3.98168C41.4039 3.86115 41.6344 3.79376 41.8707 3.78573C42.1069 3.77769 42.3415 3.82927 42.5526 3.9357L42.2672 4.84411Z" fill="#2E2C29"/>
<path d="M46.5086 5.78027L47.2061 6.26244C47.4466 6.2522 47.6838 6.32149 47.8809 6.45961C48.0291 6.54533 48.1584 6.66006 48.2612 6.79693C48.3639 6.9338 48.4381 7.09 48.4791 7.25617C48.8251 7.21917 49.1716 7.32108 49.4425 7.53951C49.7679 7.7553 49.9946 8.09115 50.073 8.47361C50.1514 8.85607 50.0751 9.25402 49.8609 9.58042L47.9708 12.2729L47.038 11.628L49.0171 8.79752C48.9985 8.65393 48.9291 8.52172 48.8216 8.42472C48.7797 8.39591 48.7325 8.3758 48.6827 8.36555C48.6329 8.35531 48.5815 8.35514 48.5317 8.36507C48.4758 8.37543 48.4227 8.39719 48.3756 8.42897C48.3284 8.46075 48.2884 8.50189 48.2579 8.54981L46.4046 11.1922L45.4796 10.5526L47.3851 7.83402C47.4239 7.75867 47.4334 7.67156 47.4116 7.58963C47.4034 7.54002 47.3852 7.49259 47.3581 7.45024C47.331 7.4079 47.2956 7.37152 47.2539 7.34334C47.2123 7.31516 47.1654 7.29576 47.116 7.28632C47.0666 7.27689 47.0158 7.27763 46.9667 7.28849C46.8778 7.30309 46.7969 7.34873 46.7385 7.41731L44.8459 10.1156L43.9167 9.47354L46.5086 5.78027Z" fill="#2E2C29"/>
<path d="M51.4669 31.0477C51.4958 34.9422 50.3675 38.7575 48.2249 42.0097C46.0823 45.2619 43.022 47.8045 39.4323 49.3149C35.8425 50.8254 31.8851 51.2356 28.0618 50.4935C24.2386 49.7515 20.7219 47.8906 17.9579 45.147C15.1938 42.4033 13.3069 38.9005 12.5365 35.0829C11.766 31.2653 12.1469 27.3049 13.6306 23.7041C15.1143 20.1032 17.6341 17.0241 20.8703 14.8575C24.1066 12.6908 27.9134 11.5341 31.808 11.5342C32.5327 11.534 33.2568 11.5731 33.9773 11.6514L31.3068 16.1284L30.236 17.9216C27.7116 18.2414 25.3331 19.2827 23.3857 20.9205C21.4383 22.5583 20.0047 24.7231 19.2568 27.1553C18.509 29.5875 18.4787 32.1838 19.1695 34.6328C19.8603 37.0817 21.2429 39.2795 23.1515 40.9623C25.0601 42.6452 27.4137 43.7417 29.9299 44.1204C32.4461 44.4992 35.0181 44.144 37.3375 43.0975C39.6569 42.051 41.6252 40.3576 43.0063 38.2204C44.3873 36.0833 45.1226 33.5931 45.1238 31.0485C45.1246 30.4163 45.0789 29.7848 44.9871 29.1592H51.3741C51.4357 29.7808 51.4666 30.4103 51.4669 31.0477Z" fill="#2E2C29"/>
<path d="M62.2332 9.09326L51.1667 27.6354L51.1078 27.7332H44.7022C44.4453 26.7442 44.0726 25.789 43.5916 24.8874C42.8012 23.3997 41.734 22.0765 40.4472 20.9891L31.0832 36.6776H21.8687L33.0818 17.8903L36.5353 12.1022C40.7299 13.1337 44.4691 15.5154 47.1772 18.8807L53.0179 9.09409H62.2328L62.2332 9.09326Z" fill="#348F41"/>
</svg>
