<svg width="1497" height="335" viewBox="0 0 1497 335" fill="none" xmlns="http://www.w3.org/2000/svg">
<path d="M155.907 253.623L41.2159 92.8779V249H0.496094V0.0581055H24.679L136.525 156.892V0.0581055H177.423V253.623H155.907Z" fill="#348F41"/>
<path d="M389.201 249H348.481V242.777C329.989 249.534 314.045 252.912 300.649 252.912C275.636 252.912 254.298 244.081 236.635 226.418C218.972 208.755 210.141 187.713 210.141 163.293C210.141 138.517 218.972 117.416 236.635 99.9905C254.298 82.4461 275.636 73.6738 300.649 73.6738C314.045 73.6738 329.989 77.7636 348.481 85.9431H389.201V249ZM348.481 174.495V152.091C346.703 143.2 342.139 135.139 334.79 127.908C325.306 118.306 313.926 113.505 300.649 113.505C287.254 113.505 275.696 118.365 265.975 128.085C256.373 137.687 251.572 149.423 251.572 163.293C251.572 177.163 256.373 188.898 265.975 198.5C275.577 208.103 287.135 212.904 300.649 212.904C313.926 212.904 325.306 208.103 334.79 198.5C342.139 191.269 346.703 183.268 348.481 174.495Z" fill="#348F41"/>
<path d="M422.631 85.9431H453.215C460.328 80.6086 468.329 77.9414 477.22 77.9414C492.512 77.9414 503.892 81.7348 511.361 89.3216C519.066 81.7348 530.506 77.9414 545.679 77.9414C561.09 77.9414 574.13 83.2759 584.799 93.9448C594.519 104.021 599.676 116.053 600.269 130.041V249H559.371L559.193 124.173C553.977 119.432 549.473 117.061 545.679 117.061C542.004 117.061 538.744 118.483 535.899 121.328C533.054 124.055 531.632 127.73 531.632 132.353V249H491.09V128.975C490.971 126.485 489.549 123.877 486.822 121.151C483.977 118.424 480.776 117.061 477.22 117.061C473.545 117.061 470.285 118.483 467.44 121.328C465.069 123.699 463.706 126.544 463.35 129.864V249H422.631V85.9431Z" fill="#348F41"/>
<path d="M633.698 85.9431H674.418V91.9888C693.029 85.3504 708.973 82.0312 722.25 82.0312C747.381 82.0312 768.719 90.8627 786.264 108.526C803.808 126.189 812.581 147.23 812.581 171.65C812.581 196.426 803.808 217.586 786.264 235.131C768.719 252.556 747.381 261.269 722.25 261.269C708.973 261.269 693.029 257.298 674.418 249.356V334.885H633.698V85.9431ZM674.418 183.386C676.196 192.04 680.701 199.923 687.932 207.036C697.415 216.638 708.855 221.439 722.25 221.439C735.646 221.439 747.144 216.638 756.746 207.036C766.348 197.315 771.149 185.52 771.149 171.65C771.149 157.781 766.348 146.045 756.746 136.443C747.144 126.841 735.646 122.04 722.25 122.04C708.855 122.04 697.415 126.841 687.932 136.443C680.701 143.555 676.196 151.32 674.418 159.737V183.386Z" fill="#348F41"/>
<path d="M840.675 0.0581055H881.395V83.6315C886.848 79.601 893.427 77.5858 901.133 77.5858C902.555 77.5858 903.978 77.645 905.4 77.7636C925.553 77.7636 942.03 84.1649 954.833 96.9677C967.636 109.652 974.215 125.359 974.571 144.089V249H933.495V145.511C933.495 137.45 930.65 130.693 924.96 125.24C919.389 119.669 912.869 116.883 905.4 116.883C897.932 116.883 891.412 119.61 885.841 125.063C883.351 127.433 881.869 129.034 881.395 129.864V249H840.675V0.0581055Z" fill="#348F41"/>
<path d="M1183.68 249H1142.96V242.777C1124.47 249.534 1108.53 252.912 1095.13 252.912C1070.12 252.912 1048.78 244.081 1031.12 226.418C1013.45 208.755 1004.62 187.713 1004.62 163.293C1004.62 138.517 1013.45 117.416 1031.12 99.9905C1048.78 82.4461 1070.12 73.6738 1095.13 73.6738C1108.53 73.6738 1124.47 77.7636 1142.96 85.9431H1183.68V249ZM1142.96 174.495V152.091C1141.18 143.2 1136.62 135.139 1129.27 127.908C1119.79 118.306 1108.41 113.505 1095.13 113.505C1081.73 113.505 1070.18 118.365 1060.46 128.085C1050.85 137.687 1046.05 149.423 1046.05 163.293C1046.05 177.163 1050.85 188.898 1060.46 198.5C1070.06 208.103 1081.62 212.904 1095.13 212.904C1108.41 212.904 1119.79 208.103 1129.27 198.5C1136.62 191.269 1141.18 183.268 1142.96 174.495Z" fill="#348F41"/>
<path d="M1300.33 119.55C1284.21 122.751 1273.54 127.019 1268.32 132.353C1259.19 141.362 1254.39 152.387 1253.92 165.427V249H1213.2V85.9431H1253.92V102.302C1261.98 89.4994 1270.34 82.6831 1278.99 81.8533L1300.33 119.55Z" fill="#348F41"/>
<path d="M1318.47 85.9431H1349.05C1356.16 80.6086 1364.16 77.9414 1373.06 77.9414C1388.35 77.9414 1399.73 81.7348 1407.2 89.3216C1414.9 81.7348 1426.34 77.9414 1441.51 77.9414C1456.93 77.9414 1469.97 83.2759 1480.63 93.9448C1490.35 104.021 1495.51 116.053 1496.1 130.041V249H1455.21L1455.03 124.173C1449.81 119.432 1445.31 117.061 1441.51 117.061C1437.84 117.061 1434.58 118.483 1431.73 121.328C1428.89 124.055 1427.47 127.73 1427.47 132.353V249H1386.93V128.975C1386.81 126.485 1385.38 123.877 1382.66 121.151C1379.81 118.424 1376.61 117.061 1373.06 117.061C1369.38 117.061 1366.12 118.483 1363.28 121.328C1360.91 123.699 1359.54 126.544 1359.19 129.864V249H1318.47V85.9431Z" fill="#348F41"/>
</svg>
