<svg width="224" height="340" viewBox="0 0 224 340" fill="none" xmlns="http://www.w3.org/2000/svg">
<g clip-path="url(#clip0_56_392)">
<path d="M22.9312 264.746C22.4004 269.628 20.9419 280.417 20.8852 280.579C20.3909 282.03 18.4218 281.418 18.6406 279.959C18.9445 277.917 19.2281 275.876 19.4996 273.83C17.9478 273.83 16.3961 273.83 14.8403 273.825C14.5972 275.669 13.953 280.409 13.8963 280.571C13.402 282.022 11.433 281.41 11.6517 279.951C11.9556 277.909 12.2392 275.867 12.5107 273.817H11.8138C10.3107 273.817 10.3147 271.488 11.8138 271.488C12.146 271.488 12.4823 271.488 12.8145 271.488C13.0981 269.239 13.3696 266.986 13.6127 264.73C13.7747 263.255 16.1044 263.243 15.9423 264.73C15.6952 266.986 15.4278 269.239 15.1442 271.488C16.6959 271.488 18.2517 271.492 19.8034 271.492C20.087 269.243 20.3544 266.991 20.6016 264.738C20.7636 263.263 23.0933 263.251 22.9312 264.738" fill="white"/>
<path d="M37.5607 276.123C36.2642 278.558 34.1818 281.459 31.0256 280.69C30.1424 280.471 29.5266 280.066 29.1093 279.531C28.0153 280.438 26.5608 280.876 25.159 280.333C23.3804 279.64 22.8051 277.886 23.2264 276.119C23.6356 274.393 24.8876 272.813 26.5082 272.08C27.5373 271.618 28.7041 271.586 29.6603 272.023C29.7453 271.821 29.8304 271.63 29.9115 271.448C30.5354 270.087 32.5409 271.27 31.921 272.623C31.3579 273.855 30.9973 275.285 30.7461 276.614C30.5475 277.659 30.8068 278.352 31.8967 278.49C32.2492 278.534 32.8326 278.368 33.2864 278.028C34.2993 277.266 34.9556 276.034 35.539 274.94C36.244 273.616 38.2535 274.795 37.5486 276.115M28.8702 274.227C27.7966 273.146 25.868 275.471 25.5561 276.46C25.317 277.225 25.313 278.109 26.2853 278.242C27.1037 278.356 27.7601 277.699 28.226 277.112C28.2827 277.043 28.3435 276.982 28.4043 276.93C28.4245 276.055 28.6109 275.119 28.8743 274.227" fill="white"/>
<path d="M46.9816 276.124C46.0902 277.838 44.9517 280.216 42.926 280.791C40.9407 281.358 39.5713 279.831 39.6645 277.943C39.705 277.096 39.9238 276.27 39.9765 275.423C40.0089 274.896 39.9481 274.451 39.7698 274.284C39.6929 274.211 39.5916 274.159 39.389 274.297C38.5746 274.856 38.129 275.937 37.7765 276.817C37.74 276.914 37.6874 276.999 37.6347 277.08C37.4321 278.085 37.1971 279.085 36.9338 280.082C36.5489 281.533 34.3043 280.913 34.6892 279.462C35.2726 277.266 35.7264 275.042 36.0141 272.789C36.1761 271.537 37.894 271.343 38.2789 272.234C38.6192 272.052 38.9919 271.935 39.4052 271.906C40.6774 271.821 41.8118 272.66 42.1764 273.875C42.4398 274.762 42.2939 275.719 42.1643 276.614C42.1116 276.975 41.7794 278.36 42.0184 278.571C42.7477 279.211 44.6843 275.504 44.972 274.945C45.6648 273.612 47.6744 274.791 46.9856 276.12" fill="white"/>
<path d="M59.1242 276.124C57.8237 278.559 55.7412 281.46 52.5891 280.69C51.6897 280.471 51.0455 280.025 50.5917 279.438C49.4856 280.41 47.9785 280.897 46.5321 280.337C44.7534 279.649 44.1781 277.89 44.5995 276.128C45.0127 274.402 46.2606 272.822 47.8812 272.089C48.5781 271.773 49.3357 271.663 50.0488 271.752C50.2473 269.897 50.4904 268.037 50.9766 266.254C51.3898 264.755 52.1353 263.094 53.7802 262.657C56.7703 261.862 57.9006 265.375 57.0336 267.652C55.9438 270.5 54.1651 272.943 52.1434 275.196C52.0989 275.245 52.0543 275.285 52.0097 275.326C52.0016 275.549 51.9976 275.775 52.0097 276.002C52.0543 277.092 52.1191 278.251 53.3346 278.478C53.7762 278.559 54.3434 278.429 54.8539 278.04C55.8668 277.27 56.5231 276.051 57.1065 274.953C57.8156 273.628 59.8251 274.807 59.1202 276.128M49.8097 273.972C48.7158 273.693 47.1965 275.589 46.9251 276.456C46.686 277.226 46.682 278.105 47.6503 278.239C48.4727 278.352 49.125 277.696 49.591 277.112C49.6315 277.064 49.672 277.019 49.7166 276.979C49.6112 276.019 49.672 274.977 49.8097 273.972ZM52.6134 270.922C53.3305 269.909 53.9666 268.839 54.4852 267.689C54.7972 266.996 55.4414 265.788 54.8377 265.059C54.5784 264.747 54.3191 264.848 54.0517 265.079C54.0922 265.043 53.8937 265.278 53.8329 265.363C53.7033 265.557 53.5979 265.776 53.5128 265.991C53.2495 266.635 53.0996 267.34 52.9659 268.025C52.7876 268.92 52.5972 270.853 52.6215 270.922" fill="white"/>
<path d="M73.8386 276.459C73.008 278.327 70.7391 281.37 68.3487 280.628C65.1399 279.632 66.4526 275.118 67.1211 272.894C67.5506 271.46 69.7992 272.076 69.3657 273.514C69.074 274.486 68.7498 275.475 68.6364 276.484C68.5959 276.86 68.446 278.266 69.0456 278.412C69.5601 278.538 70.3948 277.452 70.6581 277.132C71.124 276.573 71.5332 275.945 71.829 275.28C72.4367 273.911 74.4463 275.098 73.8426 276.455M68.7053 268.907C70.2043 268.907 70.2043 271.237 68.7053 271.237C67.2062 271.237 67.2062 268.907 68.7053 268.907Z" fill="white"/>
<path d="M83.319 276.124C82.4276 277.838 81.2891 280.216 79.2634 280.791C77.2781 281.358 75.9087 279.831 76.0019 277.943C76.0424 277.096 76.2612 276.27 76.3139 275.423C76.3463 274.896 76.2855 274.451 76.1072 274.284C76.0303 274.211 75.9249 274.159 75.7264 274.297C74.912 274.856 74.4664 275.937 74.1139 276.817C74.0734 276.914 74.0248 276.999 73.9721 277.08C73.7655 278.085 73.5345 279.085 73.2712 280.082C72.8863 281.533 70.6417 280.913 71.0266 279.462C71.61 277.266 72.0638 275.042 72.3515 272.789C72.5135 271.537 74.2314 271.343 74.6163 272.234C74.9566 272.052 75.3293 271.935 75.7426 271.906C77.0148 271.821 78.1492 272.66 78.5138 273.875C78.7772 274.762 78.6313 275.719 78.5017 276.614C78.449 276.975 78.1168 278.36 78.3558 278.571C79.0851 279.211 81.0217 275.504 81.3094 274.945C82.0022 273.612 84.0118 274.791 83.323 276.12" fill="white"/>
<path d="M102.503 264.746C101.973 269.628 100.514 280.417 100.457 280.579C99.9632 282.03 97.9941 281.418 98.2129 279.959C98.5168 277.917 98.8004 275.876 99.0718 273.83C97.5201 273.83 95.9683 273.83 94.4166 273.825C94.1735 275.669 93.5293 280.409 93.4726 280.571C92.9783 282.022 91.0093 281.41 91.224 279.951C91.5279 277.909 91.8115 275.867 92.0829 273.817H91.3861C89.883 273.817 89.887 271.488 91.3861 271.488C91.7183 271.488 92.0546 271.488 92.3868 271.488C92.6745 269.239 92.9419 266.986 93.185 264.73C93.347 263.255 95.6766 263.243 95.5146 264.73C95.2674 266.986 95 269.239 94.7164 271.488C96.2682 271.488 97.8239 271.492 99.3757 271.492C99.6593 269.243 99.9307 266.991 100.174 264.738C100.336 263.263 102.666 263.251 102.503 264.738" fill="white"/>
<path d="M117.134 276.123C115.838 278.558 113.755 281.459 110.603 280.69C109.72 280.471 109.1 280.066 108.687 279.531C107.589 280.438 106.138 280.876 104.741 280.333C102.962 279.64 102.387 277.886 102.808 276.119C103.221 274.393 104.469 272.813 106.09 272.08C107.119 271.618 108.282 271.586 109.242 272.023C109.327 271.821 109.412 271.63 109.493 271.448C110.117 270.087 112.122 271.27 111.507 272.623C110.943 273.855 110.583 275.285 110.332 276.614C110.133 277.659 110.392 278.352 111.482 278.49C111.835 278.534 112.418 278.368 112.872 278.028C113.885 277.266 114.541 276.034 115.129 274.94C115.834 273.616 117.843 274.795 117.138 276.115M108.44 274.227C107.366 273.146 105.437 275.471 105.125 276.46C104.886 277.225 104.882 278.109 105.855 278.242C106.677 278.356 107.329 277.699 107.795 277.112C107.852 277.043 107.913 276.982 107.974 276.93C107.994 276.055 108.18 275.119 108.444 274.227" fill="white"/>
<path d="M126.553 276.124C125.658 277.838 124.523 280.216 122.493 280.791C120.508 281.358 119.143 279.831 119.236 277.943C119.276 277.096 119.495 276.27 119.548 275.423C119.58 274.896 119.515 274.451 119.341 274.284C119.264 274.211 119.159 274.159 118.96 274.297C118.146 274.856 117.7 275.937 117.348 276.817C117.307 276.914 117.259 276.999 117.206 277.08C117.004 278.085 116.769 279.085 116.509 280.082C116.124 281.533 113.88 280.913 114.261 279.462C114.844 277.266 115.298 275.042 115.585 272.789C115.748 271.537 117.465 271.343 117.85 272.234C118.191 272.052 118.563 271.935 118.981 271.906C120.249 271.821 121.387 272.66 121.748 273.875C122.011 274.762 121.865 275.719 121.736 276.614C121.683 276.975 121.351 278.36 121.59 278.571C122.319 279.211 124.256 275.504 124.543 274.945C125.236 273.612 127.246 274.791 126.557 276.12" fill="white"/>
<path d="M138.692 276.124C137.396 278.559 135.313 281.46 132.157 280.69C131.258 280.471 130.609 280.025 130.16 279.438C129.054 280.41 127.546 280.897 126.1 280.337C124.321 279.649 123.746 277.89 124.167 276.128C124.577 274.402 125.828 272.822 127.449 272.089C128.146 271.773 128.904 271.663 129.617 271.752C129.815 269.897 130.058 268.037 130.544 266.254C130.958 264.755 131.703 263.094 133.348 262.657C136.334 261.862 137.469 265.375 136.601 267.652C135.512 270.5 133.733 272.943 131.711 275.196C131.667 275.245 131.622 275.285 131.578 275.326C131.569 275.549 131.565 275.775 131.578 276.002C131.622 277.092 131.687 278.251 132.902 278.478C133.344 278.559 133.911 278.429 134.422 278.04C135.431 277.27 136.091 276.051 136.674 274.953C137.379 273.628 139.393 274.807 138.688 276.128M129.378 273.972C128.284 273.693 126.764 275.589 126.493 276.456C126.254 277.226 126.25 278.105 127.218 278.239C128.041 278.352 128.693 277.696 129.159 277.112C129.199 277.064 129.24 277.019 129.284 276.979C129.179 276.019 129.24 274.977 129.378 273.972ZM132.181 270.922C132.898 269.909 133.534 268.839 134.057 267.689C134.369 266.996 135.013 265.788 134.406 265.059C134.146 264.747 133.891 264.848 133.62 265.079C133.66 265.043 133.462 265.278 133.401 265.363C133.271 265.557 133.166 265.776 133.077 265.991C132.813 266.635 132.663 267.34 132.53 268.025C132.351 268.92 132.161 270.853 132.185 270.922" fill="white"/>
<path d="M153.411 276.459C152.576 278.327 150.311 281.37 147.917 280.628C144.712 279.632 146.025 275.118 146.689 272.894C147.119 271.46 149.367 272.076 148.934 273.514C148.642 274.486 148.318 275.475 148.205 276.484C148.164 276.86 148.014 278.266 148.61 278.412C149.124 278.538 149.959 277.452 150.222 277.132C150.688 276.573 151.097 275.945 151.393 275.28C152.005 273.911 154.01 275.098 153.407 276.455M148.278 268.907C149.781 268.907 149.777 271.237 148.278 271.237C146.779 271.237 146.779 268.907 148.278 268.907Z" fill="white"/>
<path d="M162.891 276.124C162 277.838 160.861 280.216 158.831 280.791C156.846 281.358 155.481 279.831 155.574 277.943C155.615 277.096 155.833 276.27 155.886 275.423C155.918 274.896 155.858 274.451 155.679 274.284C155.602 274.211 155.497 274.159 155.299 274.297C154.484 274.856 154.039 275.937 153.682 276.817C153.646 276.914 153.593 276.999 153.54 277.08C153.334 278.085 153.103 279.085 152.839 280.082C152.454 281.533 150.21 280.913 150.591 279.462C151.174 277.266 151.628 275.042 151.916 272.789C152.078 271.537 153.795 271.343 154.18 272.234C154.521 272.052 154.893 271.935 155.311 271.906C156.579 271.821 157.717 272.66 158.078 273.875C158.341 274.762 158.195 275.719 158.066 276.614C158.013 276.975 157.681 278.36 157.92 278.571C158.649 279.211 160.586 275.504 160.873 274.945C161.566 273.612 163.576 274.791 162.887 276.12" fill="white"/>
<path d="M182.076 264.746C181.545 269.628 180.086 280.417 180.03 280.579C179.535 282.03 177.566 281.418 177.785 279.959C178.089 277.917 178.373 275.876 178.644 273.83C177.092 273.83 175.541 273.83 173.989 273.825C173.746 275.669 173.102 280.409 173.041 280.571C172.547 282.022 170.577 281.41 170.796 279.951C171.1 277.909 171.384 275.867 171.655 273.817H170.958C169.455 273.817 169.459 271.488 170.958 271.488C171.291 271.488 171.627 271.488 171.959 271.488C172.243 269.239 172.514 266.986 172.761 264.73C172.923 263.255 175.253 263.243 175.091 264.73C174.844 266.986 174.576 269.239 174.293 271.488C175.844 271.488 177.396 271.492 178.952 271.492C179.236 269.243 179.507 266.991 179.75 264.738C179.912 263.263 182.242 263.251 182.08 264.738" fill="white"/>
<path d="M194.21 275.733C193.156 277.172 191.499 278.942 189.579 279.048C188.574 280.571 186.889 281.555 184.956 280.879C182.703 280.089 181.687 277.63 182.169 275.413C182.177 275.353 182.189 275.288 182.209 275.223C182.229 275.146 182.258 275.065 182.282 274.988C182.319 274.87 182.359 274.757 182.404 274.644C182.408 274.631 182.416 274.623 182.416 274.615C183.165 272.683 184.741 271.03 186.998 271.062C189.773 271.103 190.794 273.858 190.559 276.252C191.216 275.77 191.848 275.041 192.2 274.558C193.075 273.359 195.097 274.522 194.21 275.733ZM187.201 278.334C186.115 277.589 185.292 276.365 184.673 275.199C184.644 275.272 184.612 275.349 184.587 275.421C184.583 275.438 184.575 275.454 184.567 275.47C184.567 275.478 184.567 275.482 184.563 275.486C184.203 276.617 184.328 278.112 185.572 278.634C186.232 278.91 186.779 278.727 187.201 278.334ZM186.455 273.461C186.455 273.461 186.423 273.473 186.407 273.477C186.812 274.336 187.403 275.543 188.214 276.224C188.404 274.931 188.128 272.991 186.455 273.461Z" fill="white"/>
<path d="M205.351 275.734C204.245 277.306 202.373 278.72 200.404 279.137C200.364 279.198 200.319 279.255 200.27 279.308C200.129 279.587 199.971 279.85 199.801 280.085C199.023 281.179 197.71 282.059 196.312 281.787C194.918 281.516 193.974 280.171 194.201 278.761C194.404 277.484 195.315 276.597 196.815 276.476C197.26 276.439 198.435 276.646 198.662 276.702C198.662 276.702 198.666 276.702 198.67 276.702C198.885 275.649 198.925 274.267 197.775 273.919C196.369 273.494 195.153 274.823 194.408 275.835C193.731 279.891 193.059 283.951 192.382 288.006C192.135 289.485 189.89 288.853 190.138 287.386C190.802 283.392 192.398 273.81 192.496 273.218C192.654 272.274 193.626 272.193 194.246 272.639C194.708 272.274 195.222 271.97 195.798 271.776C197.127 271.322 198.69 271.476 199.776 272.416C200.903 273.384 201.243 274.92 201.097 276.455C202.021 275.981 202.851 275.24 203.333 274.555C204.188 273.336 206.21 274.502 205.347 275.73M197.702 279.008C197.26 278.74 196.454 278.785 196.494 279.202C196.555 279.842 197.362 279.336 197.601 279.117C197.637 279.085 197.669 279.044 197.706 279.008" fill="white"/>
<path d="M212.811 276.123C211.693 278.217 209.987 280.863 207.301 280.855C205.17 280.847 203.74 279.218 203.399 277.2C203.018 274.952 204.104 271.609 206.499 270.815C208.204 270.248 210.121 271.577 210.129 273.392C210.141 275.709 207.71 276.665 205.786 276.9C205.753 276.9 205.725 276.904 205.692 276.904C205.79 277.435 206 277.966 206.393 278.274C206.64 278.468 207.191 278.562 207.487 278.529C209.047 278.363 210.141 276.179 210.793 274.952C211.502 273.627 213.512 274.806 212.807 276.127M206.049 274.526C206.665 274.429 207.406 274.206 207.722 273.663C207.876 273.408 207.848 273.246 207.649 273.108C207.046 272.691 206.438 273.586 206.049 274.526Z" fill="white"/>
<path d="M12.3325 37.5567C12.3892 36.7585 12.4865 35.9563 12.4986 35.1582C12.5229 33.3714 12.5067 31.5847 12.6972 29.7939C12.8268 31.447 12.9565 33.0959 13.0902 34.749C13.4264 38.9261 13.7546 43.0992 14.1152 47.2722C14.2003 48.2567 14.804 48.8321 15.8249 48.9982C16.2584 48.4107 16.2503 47.8962 15.8452 47.3046C15.6386 47.0048 15.6102 46.5794 15.5049 46.2107C15.594 46.1743 15.6791 46.1378 15.7682 46.1013C16.5745 46.6686 17.4172 47.1912 18.1586 47.8313C18.3652 48.0096 18.4341 48.6579 18.2761 48.8807C17.871 49.4438 17.8547 49.9341 18.1627 50.5013C18.2396 50.6431 18.3693 50.8092 18.349 50.9429C18.1829 51.972 18.9122 51.9558 19.5604 51.9598C19.8724 51.9598 20.4072 51.8626 20.4477 51.7127C20.5409 51.3481 20.4315 50.9186 20.3343 50.5337C20.2816 50.3311 20.0507 50.1772 19.9575 49.9786C19.6415 49.2737 19.7103 48.7186 20.5936 48.5404C20.8974 49.7477 21.1729 50.947 21.4971 52.13C21.8171 53.3009 21.3796 54.6663 22.3438 55.6589C22.1413 56.1127 21.7928 56.5907 21.7564 57.0931C21.7361 57.397 22.2466 58.0331 22.437 58.0047C23.219 57.8791 23.381 58.3937 23.616 58.8839C24.4142 60.5693 25.0543 62.2872 24.8193 64.2157C24.7464 64.8234 24.795 65.4514 24.8112 66.0673C24.8396 67.0234 25.2204 67.3192 26.2657 67.2949C27.153 67.2746 27.0193 66.6304 26.9788 66.1078C26.9423 65.6337 26.8046 65.1638 26.6587 64.7059C26.0996 62.9516 25.5081 61.2054 24.953 59.4471C24.8598 59.1472 24.872 58.811 24.8355 58.495C24.9328 58.4706 25.03 58.4423 25.1232 58.418C26.0915 61.6997 27.0598 64.9855 28.0767 68.4374C28.7209 66.8695 29.3287 65.4474 29.8959 64.0091C31.1681 60.7841 32.4038 57.5428 33.6922 54.3219C33.8907 53.8235 34.227 53.3455 34.5997 52.9565C36.273 51.2022 37.3426 49.0711 38.2177 46.8792C39.9275 42.5968 43.2416 40.4251 47.5322 39.6473C51.766 38.8775 56.0323 39.3839 60.1689 40.3401C64.192 41.2719 67.255 43.8284 69.8399 47.021C72.3316 50.0961 73.9076 53.621 75.354 57.2552C76.3223 59.6902 77.6229 61.9914 78.6317 64.4142C80.8762 69.7825 82.5455 75.3209 83.3112 81.1146C83.7204 84.2059 84.1458 87.3013 83.7001 90.4129C83.5705 91.3123 83.1167 92.1753 82.7642 93.0383C82.3956 93.9377 82.3793 96.3038 82.9182 97.341C83.8298 95.6272 84.6482 94.039 85.5071 92.4711C86.281 91.0571 87.071 89.6552 87.8975 88.2737C88.9793 86.4667 89.9841 84.5989 91.236 82.9175C92.5851 81.1025 93.9586 79.1902 95.7089 77.8167C99.8779 74.5471 104.314 71.6462 109.841 71.1762C112.292 70.9696 114.747 70.5807 117.194 70.6252C122.919 70.7306 128.133 72.335 132.282 76.5405C134.275 78.5581 135.689 80.9485 136.763 83.5536C136.88 83.8372 137.022 84.1087 137.383 84.372C137.683 83.1647 137.962 81.9492 138.29 80.7459C138.931 78.4082 139.692 76.0988 140.239 73.7368C141.191 69.6407 141.993 65.5122 142.921 61.4121C143.087 60.6747 143.598 60.0264 143.906 59.3134C144.441 58.0736 144.931 56.8176 145.458 55.5779C145.684 55.0471 145.94 54.5245 146.231 54.0261C148.204 50.6715 150.198 47.333 152.167 43.9783C155.603 38.1239 160.57 34.5221 167.38 33.7037C171.339 33.2296 175.289 33.4444 179.138 34.518C182.488 35.4539 184.822 37.4513 185.997 40.9235C186.605 42.7143 188.007 44.2336 189.048 45.8785C191.532 49.7963 193.881 53.7668 195.555 58.1425C196.422 60.4073 196.592 62.8058 197.414 65.0503C197.503 65.2894 197.56 65.5406 197.69 65.97C198.054 65.0949 198.249 64.3129 198.67 63.685C199.185 62.9233 199.833 62.2224 200.53 61.6146C201.644 60.6382 201.839 60.229 201.105 58.969C200.741 58.345 200.797 57.8427 200.992 57.2309C201.636 55.2416 202.345 53.2685 202.839 51.2387C203.163 49.9057 203.163 48.4877 203.334 47.1142C203.366 46.8468 203.516 46.5916 203.67 46.1743C204.448 46.9319 204.602 47.7382 204.436 48.5647C204.245 49.5087 203.881 50.4203 203.633 51.3562C203.423 52.1624 203.244 52.9849 203.107 53.8073C202.969 54.6176 203.419 54.9215 204.314 54.8891C204.359 53.9572 204.355 53.0294 204.46 52.1097C204.553 51.2913 204.784 50.4891 204.926 49.6748C205.193 48.1595 205.473 46.6442 205.683 45.1209C205.817 44.1688 205.789 43.1923 205.935 42.2443C206.012 41.7581 206.401 41.3246 206.486 40.8425C206.571 40.3522 206.567 39.785 206.401 39.3231C206.076 38.4115 206.494 37.6701 207.405 37.6336C207.405 38.3062 207.405 38.9747 207.405 39.6473C207.405 39.9673 207.507 40.3522 207.369 40.5913C206.316 42.3982 206.437 44.4686 205.987 46.4093C205.688 47.6895 205.319 48.9212 205.987 50.2339C206.218 50.2177 206.461 50.1974 206.704 50.1772C206.923 50.7687 207.142 51.3602 207.361 51.9517C207.47 51.976 207.58 52.0044 207.689 52.0287C207.397 52.365 207.166 52.8026 206.798 53.0092C205.87 53.5359 204.95 53.941 204.65 55.1727C204.44 56.0438 203.804 56.8014 203.484 57.6522C203.285 58.187 203.232 58.8353 204.148 58.9001C204.987 58.9568 205.088 58.4666 204.95 57.8467C204.735 56.8824 205.019 56.06 205.546 55.274C205.89 54.7635 206.218 54.8324 206.627 55.2213C206.883 55.4644 207.219 55.6224 207.693 55.9303C207.794 55.1403 207.855 54.6339 207.928 54.1274C208.009 53.5521 207.997 52.9363 208.208 52.4096C209.103 50.1974 209.618 47.8881 209.873 45.5382C210.087 43.5853 210.116 41.6122 210.128 39.6473C210.128 39.3434 209.63 38.9585 209.281 38.76C208.937 38.5614 208.483 38.5452 207.981 38.4277C208.204 37.978 208.398 37.581 208.613 37.1475C209.018 37.3014 209.338 37.4189 209.816 37.6012C210.144 36.5762 210.464 35.5836 210.784 34.5869C210.886 34.6031 210.987 34.6193 211.088 34.6355C211.141 35.6808 211.254 36.7221 211.23 37.7633C211.125 41.6285 210.91 45.4855 209.901 49.2453C209.877 49.3385 209.82 49.4519 209.844 49.5289C210.375 51.0523 209.686 52.2718 208.933 53.5075C208.714 53.8681 208.771 54.3867 208.669 54.8283C208.568 55.2659 208.564 55.8615 208.276 56.0924C207.215 56.9432 207.361 58.025 207.523 59.1189C207.636 59.8846 207.794 60.6017 206.879 61.0393C206.737 61.1082 206.713 61.5539 206.737 61.8132C206.818 62.668 206.461 63.3041 205.777 63.9645C205.461 63.292 205.189 62.7166 204.837 61.9712C204.152 62.9759 203.516 63.7376 202.329 63.0003C202.244 63.8511 202.434 64.1387 203.119 64.5884C203.872 65.0827 204.456 65.6216 205.4 65.5041C205.42 65.8566 205.566 66.2577 205.449 66.5534C203.864 70.4956 202.284 74.4377 200.611 78.3393C199.732 80.3894 198.601 82.326 198.119 84.5503C197.965 85.2593 197.354 85.8752 196.936 86.5234C196.75 86.8151 196.523 87.0785 196.312 87.358C197.625 88.2899 198.379 88.1076 198.67 86.6895C199.14 84.4004 200.437 82.5691 201.782 80.7216C201.697 81.0579 201.648 81.4104 201.514 81.7264C200.814 83.3916 200.096 85.0527 199.371 86.7098C199.205 87.0947 199.092 87.6173 198.784 87.8158C197.094 88.8936 196.981 90.9031 195.98 92.3698C193.46 96.0648 191.969 100.42 188.699 103.633C187.711 104.605 186.807 105.663 185.863 106.68C185.596 106.963 185.211 107.182 185.057 107.514C183.87 110.002 181.549 111.392 179.604 113.126C177.375 115.115 174.985 116.918 172.749 118.903C171.788 119.758 171.015 120.828 170.22 121.853C167.996 124.725 165.03 126.747 162.182 128.894C154.853 134.425 147.22 139.477 138.756 143.119C136.232 144.205 133.57 144.959 130.965 145.85C130.062 146.162 129.264 146.567 128.802 147.864C129.75 147.77 130.532 147.831 131.212 147.596C133.842 146.689 136.423 145.635 139.052 144.724C141.495 143.877 143.995 143.184 146.442 142.337C149.116 141.409 151.535 140.008 153.86 138.371C156.806 136.3 159.938 134.493 162.948 132.512C165.002 131.163 166.874 129.49 169.037 128.376C170.488 127.626 171.197 126.646 171.732 125.252C172.125 124.231 172.66 123.242 173.259 122.323C173.689 121.662 174.333 121.14 174.88 120.556C174.945 120.617 175.005 120.674 175.07 120.734C174.689 121.776 174.252 122.805 173.948 123.866C173.834 124.263 173.903 125.049 174.11 125.138C174.653 125.373 175.402 125.531 175.921 125.329C176.614 125.062 177.226 124.486 177.76 123.935C178.931 122.736 179.956 121.383 181.188 120.248C182.906 118.672 184.693 117.157 186.564 115.771C188.736 114.163 190.126 111.926 191.685 109.828C193.108 107.915 194.396 105.902 195.741 103.933C195.818 103.977 195.895 104.026 195.972 104.071C195.085 105.639 194.262 107.243 193.306 108.762C188.4 116.57 182.027 123.032 174.653 128.481C161.335 138.322 146.762 145.651 130.613 149.565C126.663 150.521 122.562 150.918 118.515 151.417C115.618 151.769 112.693 152.012 109.78 152.037C100.178 152.118 90.843 150.456 81.8283 147.203C77.7809 145.741 73.8711 143.881 69.9209 142.155C66.7121 140.753 63.4425 139.457 60.3634 137.808C46.4626 130.365 35.3735 119.957 27.5095 106.222C26.9221 105.197 26.3832 104.144 25.8808 103.09C28.2064 106.088 30.4793 109.135 32.8778 112.072C35.2439 114.969 37.8166 117.676 40.7985 119.973C41.6129 120.601 42.2328 121.472 42.9621 122.213C43.2538 122.509 43.5738 122.805 43.9344 123.007C44.3679 123.246 44.9432 123.607 45.2714 122.943C45.5348 122.412 45.7455 121.913 44.9473 121.334C44.1167 120.734 43.6265 119.657 42.9904 118.79C43.0836 118.68 43.1808 118.571 43.2781 118.462C43.5657 118.636 43.9263 118.753 44.1289 118.996C44.7852 119.799 45.3362 120.686 46.021 121.456C46.3329 121.804 46.8718 121.946 47.2972 122.205C47.443 122.294 47.6416 122.436 47.6659 122.578C47.8522 123.587 48.6544 124.049 49.3635 124.608C52.2725 126.897 55.1207 129.263 58.0986 131.459C60.732 133.4 63.4425 135.255 66.234 136.965C70.8568 139.797 75.593 142.459 80.6818 144.375C82.1889 144.942 83.8095 145.194 85.3532 145.668C86.5281 146.024 87.6625 146.506 88.8172 146.924C88.9874 146.984 89.1738 147.009 89.3763 147.053C89.506 146.364 89.4209 145.943 88.7119 145.635C85.3005 144.136 81.9134 142.588 78.5304 141.025C75.9131 139.813 73.2351 138.699 70.7272 137.289C65.1766 134.169 60.2013 130.231 55.5907 125.864C49.9996 120.568 44.5219 115.16 39.0523 109.739C34.2958 105.023 30.1147 99.8772 27.3718 93.6744C26.7884 92.3576 25.7552 91.2475 25.0908 89.9591C24.2764 88.3831 23.6201 86.7219 22.9313 85.0851C22.83 84.842 22.826 84.4004 22.9799 84.2505C23.1258 84.1047 23.5309 84.1857 23.8145 84.2221C24.0576 84.2505 24.2926 84.3518 24.7504 84.4895C24.637 83.9021 24.6289 83.4524 24.4668 83.0675C22.6315 78.6716 20.7394 74.2959 18.9406 69.8838C17.9884 67.5461 17.1417 65.1638 16.3476 62.7734C15.7804 61.0596 15.047 59.3012 14.9741 57.5388C14.8566 54.6622 13.317 52.0409 13.6655 49.1238C13.6776 49.0306 13.6898 48.9131 13.6493 48.8321C12.45 46.4579 12.9281 43.8325 12.5148 41.3367C12.4865 41.1787 12.4054 41.0329 12.3487 40.883V37.5648L12.3325 37.5567ZM104.387 130.657C104.326 130.195 104.294 129.94 104.254 129.684C103.597 125.394 102.888 121.111 102.301 116.813C101.887 113.798 101.616 110.76 101.32 107.733C100.972 104.152 100.688 100.566 100.336 96.9885C100.105 94.6265 100.218 92.2037 98.8934 90.0361C98.472 89.3473 98.4234 88.4317 98.2127 87.6173C98.1155 87.2365 98.0304 86.8475 97.9007 86.2803C94.0477 90.733 90.4905 95.1126 87.853 100.157C87.1642 101.474 86.7347 102.973 85.8677 104.148C83.3841 107.518 80.7385 110.768 78.1536 114.062C77.8781 114.41 77.5702 114.734 77.161 115.204C77.3757 113.604 77.4932 112.21 77.7687 110.849C78.0847 109.285 78.2589 107.664 79.6932 106.526C80.147 106.165 80.3536 105.343 80.4346 104.699C80.5643 103.682 80.5116 102.64 80.4954 101.611C80.4954 101.388 80.3617 101.125 80.2077 100.955C78.2833 98.836 76.9908 96.3524 76.4398 93.5771C75.9293 90.9841 75.7348 88.3263 75.4067 85.6969C74.9124 81.7345 74.1304 77.8288 72.8137 74.0488C72.3275 72.6591 71.7522 71.2775 70.5327 70.0823C70.322 70.5807 70.1235 70.9412 70.0181 71.3261C69.1309 74.5714 68.0532 77.7883 67.4373 81.0863C66.5055 86.0777 65.6871 91.1138 65.2292 96.166C64.8768 100.031 64.9983 103.957 65.1887 107.843C65.3508 111.23 65.8775 114.605 66.3029 117.975C66.3515 118.372 66.6999 118.883 67.0524 119.069C70.7353 120.986 74.3695 123.02 78.1658 124.685C84.7657 127.578 91.7222 129.291 98.8731 130.175C100.672 130.397 102.483 130.487 104.387 130.649M153.613 62.5748C153.236 63.1015 152.937 63.4783 152.69 63.8875C148.484 70.8521 146.325 78.4447 145.697 86.5194C145.49 89.1974 145.174 91.8714 144.89 94.5414C144.396 99.2047 142.986 103.738 142.925 108.471C142.913 109.342 142.638 110.18 142.204 111.019C141.791 111.817 141.56 112.96 141.803 113.79C142.455 116.051 142.796 118.328 142.812 120.666C142.812 120.864 142.771 121.059 142.731 121.407C142.403 120.998 142.172 120.73 141.961 120.447C139.672 117.343 138.08 113.859 136.528 110.363C136.159 109.532 135.864 108.564 135.9 107.672C136.022 104.897 135.402 102.26 134.676 99.6341C133.635 95.8662 132.314 92.2118 129.908 89.0637C129.26 88.2129 128.441 87.4917 127.7 86.7138C127.602 86.7665 127.501 86.8232 127.404 86.8759C126.987 101.012 126.837 115.164 124.872 129.267C125.261 129.247 125.552 129.255 125.836 129.21C132.63 128.08 139.291 126.455 145.729 123.968C151.142 121.873 156.267 119.239 160.963 115.8C161.4 115.48 161.704 115.184 161.773 114.54C161.878 113.543 161.749 112.595 161.704 111.619C161.623 109.868 160.874 108.45 160.205 106.951C160.027 106.55 159.905 106.1 159.869 105.659C159.776 104.658 159.719 103.649 159.707 102.644C159.61 94.4968 159.261 86.3614 158.094 78.2948C157.555 74.5552 156.778 70.8481 155.943 67.1612C155.578 65.5446 154.938 63.9524 153.629 62.5708M178.109 99.1966C178.526 98.7266 178.769 98.4795 178.984 98.2121C183.667 92.2928 187.788 86.0048 191.357 79.3563C191.596 78.9146 191.653 78.2867 191.572 77.7802C191.256 75.799 190.972 73.8016 190.446 71.869C189.635 68.875 188.736 65.9011 187.679 62.9881C187.237 61.7726 186.305 60.7395 185.596 59.6213C185.511 59.6618 185.426 59.7064 185.337 59.7469C183.501 72.9022 181.885 86.0939 178.105 99.1885M39.2144 65.1719C38.2623 65.4352 37.8733 66.0429 37.8328 66.9586C37.7639 68.4739 37.3223 69.8716 36.5323 71.1762C36.2406 71.6584 35.9894 72.2134 35.9002 72.7644C35.3979 75.795 34.936 78.8296 34.4984 81.8682C34.4376 82.2855 34.4741 82.796 34.6686 83.1525C36.6498 86.803 38.6674 90.4291 40.681 94.0592C40.8269 94.3226 41.0295 94.5535 41.2037 94.8007C41.305 92.7263 41.1348 90.733 41.1024 88.7355C40.989 82.4071 40.831 76.0745 40.9039 69.746C40.9241 67.8783 40.1868 66.5494 39.2184 65.1678" fill="#94D1B2"/>
<path d="M209.893 49.2453C210.906 45.4815 211.117 41.6285 211.222 37.7633C211.251 36.7261 211.129 35.6727 211.093 34.6315C210.987 34.6193 210.882 34.6072 210.777 34.591C210.461 35.5755 210.145 36.5762 209.816 37.6012C209.33 37.4189 209.014 37.2974 208.609 37.1394C208.398 37.5729 208.2 37.9699 207.977 38.4156C208.475 38.5452 208.937 38.5614 209.278 38.76C209.634 38.9585 210.12 39.3393 210.12 39.6392C210.12 41.6122 210.08 43.5853 209.873 45.5341C209.622 47.8881 209.112 50.2015 208.216 52.4136C207.993 52.9403 208.005 53.5602 207.928 54.1234C207.864 54.6379 207.799 55.1362 207.706 55.9263C207.232 55.6224 206.891 55.4644 206.64 55.2294C206.231 54.8364 205.903 54.7676 205.562 55.2699C205.024 56.06 204.744 56.8865 204.959 57.8467C205.105 58.4625 204.999 58.9528 204.157 58.9001C203.249 58.8353 203.302 58.1911 203.5 57.6482C203.816 56.7933 204.448 56.0438 204.659 55.1768C204.963 53.941 205.882 53.5318 206.814 53.0051C207.171 52.7945 207.406 52.3609 207.698 52.0328C207.592 52.0085 207.487 51.9801 207.369 51.9517C207.159 51.3602 206.936 50.7687 206.713 50.1772C206.478 50.1893 206.227 50.2177 206.004 50.2298C205.331 48.9172 205.7 47.6895 206.004 46.4011C206.45 44.4686 206.332 42.3901 207.386 40.5872C207.519 40.3522 207.41 39.9552 207.426 39.6392V37.6255C206.506 37.6661 206.097 38.3994 206.413 39.311C206.583 39.785 206.583 40.3482 206.506 40.8344C206.413 41.3205 206.032 41.7541 205.955 42.2402C205.81 43.1883 205.838 44.1607 205.704 45.1209C205.494 46.6361 205.206 48.1474 204.943 49.6707C204.797 50.4851 204.574 51.2873 204.485 52.1057C204.379 53.0254 204.379 53.9491 204.339 54.881C203.431 54.9215 202.986 54.6176 203.127 53.8033C203.261 52.9768 203.443 52.1584 203.654 51.3562C203.889 50.4081 204.258 49.5006 204.444 48.5566C204.614 47.7422 204.468 46.9238 203.678 46.1743C203.537 46.5956 203.375 46.8428 203.35 47.1061C203.18 48.4877 203.18 49.8936 202.852 51.2346C202.35 53.2604 201.653 55.2335 201.013 57.2187C200.814 57.8386 200.749 58.3369 201.118 58.9568C201.855 60.2209 201.657 60.6261 200.538 61.6025C199.854 62.2062 199.197 62.9192 198.683 63.6809C198.262 64.2967 198.067 65.0868 197.711 65.9579C197.581 65.5365 197.512 65.2853 197.435 65.0382L196.702 67.5744C196.584 71.9015 193.87 72.5781 192.764 76.6701C192.845 77.1847 191.621 78.9146 191.386 79.3482C191.204 79.6763 191.03 80.0045 190.847 80.3327C190.847 80.3448 190.847 80.361 190.835 80.361C177.348 107.069 148.938 130.649 110.068 130.649C108.16 130.649 106.268 130.596 104.388 130.491C104.4 130.543 104.4 130.596 104.412 130.649C102.504 130.491 100.705 130.397 98.9019 130.175C97.0747 129.952 95.2434 129.66 93.4445 129.32C73.4219 126.062 59.5616 114.686 47.5448 102.146C37.5335 91.7013 33.8749 80.8553 26.8091 67.1531H27.7166C27.5991 67.23 26.5174 67.2827 26.2824 67.2827C25.229 67.307 24.8481 67.0072 24.8238 66.047C24.8117 65.4433 24.7549 64.8113 24.836 64.2076C25.071 62.275 24.4268 60.5653 23.6367 58.8799C23.4017 58.3815 23.2275 57.867 22.4537 58.0007C22.2673 58.029 21.7568 57.397 21.769 57.0931C21.8095 56.5948 22.162 56.1086 22.3605 55.6589C21.4003 54.6582 21.8338 53.2928 21.5178 52.1219C21.1896 50.9389 20.9141 49.7396 20.6102 48.5444C19.727 48.7146 19.6622 49.2656 19.9782 49.9786C20.0714 50.1772 20.2942 50.3311 20.3469 50.5297C20.4522 50.9105 20.5576 51.344 20.4644 51.7127C20.4239 51.8586 19.885 51.9639 19.569 51.9639C18.9248 51.9517 18.1996 51.9761 18.3738 50.9389C18.3859 50.8092 18.2563 50.6512 18.1753 50.5053C17.8714 49.9381 17.8876 49.4398 18.2928 48.8888C18.4508 48.666 18.3859 48.0096 18.1753 47.8354C17.4379 47.1912 16.5952 46.6645 15.793 46.1013C15.6998 46.1419 15.6107 46.1662 15.5175 46.2067C15.635 46.5754 15.6633 46.9967 15.8578 47.3006C16.267 47.8921 16.2792 48.4188 15.8456 48.9982C14.8206 48.828 14.2169 48.2608 14.1359 47.2763C13.7794 43.1073 13.4512 38.922 13.1109 34.753C12.9812 33.0959 12.8475 31.451 12.7179 29.7939C12.5315 31.5969 12.5436 33.3714 12.5193 35.1582C12.5072 35.9604 12.414 36.7626 12.3613 37.5526V40.8789C12.414 41.0248 12.491 41.1666 12.5193 41.3246C12.9407 43.8244 12.4667 46.4417 13.6659 48.824C13.7064 48.905 13.6902 49.0225 13.6781 49.1116C13.3256 52.0328 14.8733 54.6501 14.9786 57.5185C15.0596 59.281 15.793 61.0434 16.3602 62.7531C17.1502 65.1597 18.0051 67.542 18.9532 69.8716C20.7561 74.2919 22.6482 78.6594 24.4794 83.0513C24.6375 83.4483 24.6496 83.894 24.7671 84.4733C24.3052 84.3437 24.0702 84.2384 23.819 84.21C23.5435 84.1857 23.1343 84.0925 22.9885 84.2384C22.8305 84.3964 22.8305 84.8299 22.9358 85.0811C23.6205 86.7098 24.2769 88.3831 25.0953 89.947C25.7638 91.2353 26.805 92.3536 27.3844 93.6703C30.1192 99.8813 34.3044 105.023 39.0649 109.731C44.5385 115.147 50.0081 120.568 55.5992 125.856C60.2179 130.223 65.1892 134.169 70.7398 137.285C73.2517 138.691 75.9217 139.809 78.539 141.02C81.9179 142.584 85.3131 144.124 88.7204 145.623C89.4295 145.939 89.5226 146.36 89.393 147.045C89.1823 147.005 89 146.976 88.8258 146.911C87.667 146.49 86.5367 146.016 85.3658 145.664C83.814 145.19 82.1934 144.938 80.6944 144.375C75.5935 142.455 70.8694 139.797 66.2385 136.957C63.4511 135.247 60.7406 133.391 58.1112 131.459C55.1252 129.263 52.2851 126.893 49.3639 124.604C48.6549 124.053 47.8527 123.579 47.6663 122.578C47.638 122.432 47.4435 122.29 47.2976 122.197C46.8763 121.946 46.3374 121.804 46.0214 121.448C45.3367 120.686 44.7857 119.79 44.1253 118.988C43.9268 118.753 43.5743 118.632 43.2826 118.462C43.1772 118.567 43.084 118.672 42.9909 118.778C43.6229 119.645 44.1091 120.722 44.9518 121.33C45.754 121.909 45.5312 122.408 45.2678 122.934C44.9396 123.607 44.3724 123.238 43.9389 122.999C43.5702 122.801 43.2542 122.501 42.9666 122.209C42.2292 121.472 41.6133 120.589 40.7949 119.973C37.8211 117.672 35.2443 114.961 32.8783 112.068C30.4838 109.123 28.2109 106.084 25.8813 103.082C26.3958 104.135 26.9347 105.189 27.514 106.214C35.378 119.944 46.4671 130.349 60.3719 137.795C63.4511 139.44 66.7247 140.741 69.9335 142.151C73.8797 143.873 77.7854 145.728 81.8369 147.187C90.8475 150.448 100.186 152.105 109.788 152.028C112.71 152 115.631 151.765 118.523 151.409C122.575 150.91 126.663 150.513 130.625 149.553C146.779 145.647 161.352 138.318 174.665 128.481C182.043 123.024 188.412 116.565 193.319 108.75C194.279 107.239 195.109 105.634 195.989 104.067C195.908 104.014 195.831 103.973 195.754 103.921C194.413 105.894 193.124 107.907 191.702 109.816C190.138 111.918 188.74 114.159 186.573 115.759C184.705 117.153 182.914 118.664 181.205 120.244C179.969 121.375 178.944 122.732 177.769 123.927C177.23 124.482 176.626 125.045 175.93 125.321C175.415 125.519 174.665 125.361 174.127 125.122C173.916 125.045 173.851 124.255 173.956 123.862C174.256 122.797 174.694 121.772 175.087 120.718C175.022 120.666 174.953 120.601 174.888 120.548C174.349 121.128 173.705 121.654 173.268 122.311C172.664 123.23 172.137 124.219 171.744 125.244C171.205 126.638 170.509 127.61 169.046 128.359C166.891 129.478 165.007 131.147 162.957 132.504C159.946 134.489 156.814 136.292 153.869 138.359C151.539 140.004 149.133 141.397 146.451 142.333C144.004 143.176 141.504 143.873 139.073 144.715C136.439 145.635 133.85 146.676 131.233 147.596C130.548 147.831 129.758 147.766 128.814 147.859C129.276 146.571 130.078 146.162 130.986 145.846C133.591 144.95 136.245 144.201 138.773 143.123C147.245 139.481 154.874 134.417 162.199 128.89C165.039 126.747 168.013 124.721 170.237 121.853C171.027 120.828 171.801 119.746 172.761 118.895C174.998 116.922 177.392 115.107 179.616 113.122C181.565 111.388 183.891 110.006 185.074 107.518C185.232 107.178 185.613 106.967 185.888 106.676C186.836 105.663 187.732 104.597 188.716 103.637C191.99 100.412 193.477 96.0607 196.005 92.3617C197.006 90.9031 197.123 88.8895 198.809 87.8118C199.112 87.6133 199.23 87.0866 199.4 86.7057C200.125 85.0487 200.834 83.3916 201.531 81.7224C201.677 81.4063 201.717 81.0498 201.807 80.7216C200.453 82.5651 199.161 84.3923 198.687 86.6814C198.399 88.1035 197.65 88.2858 196.333 87.354C196.544 87.0785 196.767 86.8151 196.949 86.5234C197.37 85.8792 197.974 85.2593 198.132 84.5503C198.618 82.326 199.748 80.3935 200.632 78.3434C202.301 74.4377 203.881 70.4915 205.457 66.5575C205.575 66.2536 205.433 65.8606 205.417 65.5041C204.468 65.6216 203.889 65.0827 203.127 64.5844C202.443 64.1387 202.26 63.847 202.337 62.9921C203.533 63.7417 204.165 62.98 204.849 61.9671C205.206 62.7166 205.469 63.296 205.797 63.9645C206.482 63.292 206.835 62.664 206.758 61.8051C206.733 61.5417 206.758 61.096 206.887 61.0272C207.807 60.5936 207.653 59.8846 207.531 59.1067C207.373 58.0128 207.228 56.9351 208.293 56.0802C208.569 55.8574 208.585 55.2537 208.674 54.8162C208.779 54.3827 208.727 53.856 208.937 53.4994C209.699 52.2637 210.384 51.0401 209.857 49.5127C209.829 49.4317 209.881 49.3304 209.91 49.2372M26.647 64.7019C26.6592 64.7424 26.6713 64.7667 26.6713 64.8072C26.6592 64.4264 26.6592 64.0577 26.6592 63.6769C26.1325 61.9023 25.622 60.1642 25.1074 58.418C25.0142 58.4423 24.9251 58.4706 24.8198 58.499C24.8603 58.815 24.8441 59.1554 24.9373 59.4592C25.4883 61.2095 26.0838 62.9597 26.647 64.71" fill="#369881"/>
<path d="M52.8078 32.2911C50.2391 31.9791 47.6583 31.7482 45.1058 31.3349C42.5574 30.9176 40.6694 29.4672 39.4418 27.174C38.8138 25.999 38.0562 24.8889 37.5295 23.6735C36.6665 21.6801 36.6179 19.5774 37.3026 17.5233C38.1129 15.0964 39.6849 13.103 41.4919 11.3811C43.149 9.80105 45.0653 8.4843 46.929 7.13919C47.3909 6.80697 48.0999 6.82723 48.6955 6.67327C50.7618 6.14252 52.8199 5.58746 54.8903 5.08507C56.1665 4.77715 57.1875 5.17826 57.8681 6.3451C58.7878 7.92114 60.06 9.16901 61.6118 10.0928C62.2884 10.4979 63.1189 10.6438 63.8644 10.9436C64.1804 11.0692 64.5937 11.2191 64.7314 11.4784C66.8139 15.4003 67.7539 19.4396 65.5863 23.6451C64.3992 25.9464 62.4464 27.5953 60.4571 29.1754C59.9466 29.5765 59.3834 29.9047 58.8567 30.2856C57.0578 31.5861 55.2022 32.7003 52.7835 31.9386C52.7916 32.0601 52.7997 32.1776 52.8078 32.2992" fill="#369881"/>
<path d="M168.244 27.2589C165.894 26.9793 163.536 26.7889 161.206 26.3919C158.731 25.9705 156.762 24.6902 155.526 22.4173C154.813 21.1087 153.906 19.8729 153.387 18.4914C152.674 16.5912 152.52 14.5533 153.205 12.5883C154.084 10.048 155.741 7.96551 157.665 6.16664C159.241 4.69188 161.04 3.43591 162.827 2.20829C163.398 1.81124 164.241 1.80314 164.958 1.62082C166.992 1.10223 169.022 0.579581 171.06 0.0771919C172.17 -0.198312 172.988 0.267614 173.673 1.13059C174.455 2.11106 175.245 3.09558 176.108 4.00312C177.117 5.06057 178.417 5.63589 179.831 5.98432C180.151 6.0613 180.557 6.25172 180.698 6.51101C182.4 9.68336 183.389 13.034 182.299 16.5993C181.857 18.0457 181.043 19.4597 180.103 20.6589C177.992 23.3573 175.136 25.2007 172.198 26.8861C171.907 27.0523 171.526 27.1171 171.181 27.1292C170.209 27.1616 169.233 27.1373 168.26 27.1373C168.256 27.1779 168.248 27.2184 168.244 27.2589Z" fill="#369881"/>
<path d="M123.478 55.1529C123.806 60.9588 119.499 65.4884 114.917 67.271C114.682 67.3602 114.419 67.3926 114.164 67.4047C112.835 67.4736 111.498 67.6397 110.181 67.5587C107.005 67.3642 104.318 66.0029 102.135 63.7178C100.79 62.312 99.8536 60.5455 100.105 58.617C100.526 55.3879 101.353 52.2399 104.258 50.1695C105.048 49.6064 105.765 48.946 106.539 48.3545C108.151 47.1309 110.072 46.8108 112.004 46.5637C113.191 46.4138 114.386 46.2071 115.578 46.2315C115.999 46.2396 116.599 46.7784 116.789 47.216C117.279 48.3423 117.818 49.3876 118.871 50.0723C119.216 50.2992 119.593 50.522 119.986 50.6274C122.635 51.3485 123.478 52.4222 123.478 55.1489M116.315 48.3139C115.31 48.5287 114.472 48.7556 113.617 48.8771C111.182 49.2215 108.848 49.8373 106.814 51.2878C105.275 52.3857 104.282 53.8321 103.958 55.7444C103.115 60.7116 107.965 65.7639 113.329 64.3175C116.489 63.4666 119.483 62.3282 120.5 58.7021C120.638 58.2037 120.845 57.7175 120.922 57.207C121.217 55.2461 121.088 53.3946 119.151 52.252C117.927 51.5309 117.299 50.3883 116.712 49.1931C116.558 48.8771 116.42 48.553 116.311 48.3099" fill="#369881"/>
<path d="M7.35352 223.717V228.96C9.61022 228.96 11.5266 228.855 13.7833 228.96C17.1339 229.118 16.7936 235.925 13.7833 236.314C11.5468 236.601 9.61022 236.314 7.35352 236.314V247.33C7.35352 250.222 0 250.222 0 247.33V218.556C0 217.255 1.47476 216.53 4.44452 216.368C8.03418 216.177 11.636 216.368 15.2297 216.368C18.8234 216.368 18.6735 223.717 15.2297 223.717H7.35352Z" fill="#369881"/>
<path d="M39.0205 245.296C34.8028 250.676 26.5499 250.656 22.9521 244.668C19.2288 238.684 19.1964 230.986 21.0317 224.394C22.5713 217.895 30.6298 213.673 36.7638 217.413C40.8842 219.937 42.0875 224.912 42.5858 229.276C43.2017 234.648 42.7114 240.969 39.0205 245.296ZM35.131 228.692C34.9771 227.732 34.4585 224.483 32.4165 223.482C31.1241 222.846 29.6939 223.482 28.9686 224.633C27.2873 227.303 26.874 232.444 27.4088 236.633C27.9882 241.204 29.6939 242.541 30.9093 242.557C34.815 242.613 35.1877 237.423 35.3903 234.328C35.4713 232.473 35.4106 230.516 35.131 228.688M34.2559 225.35C34.3167 225.484 34.4058 225.67 34.2721 225.378C34.268 225.37 34.2599 225.358 34.2559 225.35Z" fill="#369881"/>
<path d="M67.0729 238.399C66.5422 242.05 64.8243 245.639 62.2476 247.576C58.1312 250.671 52.3132 250.481 48.5615 245.028C44.0886 237.135 46.3899 219.301 46.4628 218.385C46.7302 215.091 53.48 215.261 53.5408 218.729C53.6097 222.538 51.9081 232.573 54.1445 239.655C54.3106 240.186 54.9751 242.269 56.6767 242.269C58.038 242.269 58.7187 241.231 59.3993 239.501C59.8572 238.343 59.9909 236.73 60.0476 235.79C60.4203 229.81 60.2704 224.073 60.1489 218.385C60.08 215.269 65.9993 214.986 66.8866 217.692C67.9075 220.808 68.0291 231.86 67.077 238.395" fill="#369881"/>
<path d="M92.5729 245.195C92.5284 246.82 92.3379 247.439 92.1394 247.841C91.4588 249.202 90.2311 249.571 87.9299 249.571C86.285 249.571 85.3328 248.521 84.9925 247.841C83.538 244.936 80.6128 238.06 78.9598 234.3C78.9598 238.781 79.0692 242.894 78.9598 246.994C78.8666 250.567 71.7197 250.567 71.6063 246.994C71.3267 237.971 71.6103 227.757 71.9466 218.56C72.056 215.509 79.2029 215.854 79.997 218.082C81.488 222.284 83.4246 226.319 85.2194 230.399C85.2194 226.323 85.11 222.632 85.2194 218.901C85.3328 215.169 92.4797 215.513 92.5729 218.901C92.7998 227.222 92.8201 235.933 92.5729 245.203" fill="#369881"/>
<path d="M118.811 232.144C118.868 236.674 117.482 241.329 114.529 244.814C111.494 248.387 107.167 249.21 102.828 249.193C100.016 249.21 97.1841 249.315 97.1841 247.33V218.544C97.1841 216.822 99.3395 216.186 102.402 216.186C106.624 216.408 110.53 217.292 113.905 220.022C117.454 222.895 118.758 227.74 118.815 232.144M111.458 232.144C111.425 229.782 110.939 226.821 108.857 225.391C107.597 224.528 106.073 224.175 104.534 224.045V241.836C106.377 241.739 108.062 241.281 109.331 239.616C110.915 237.529 111.49 234.717 111.458 232.149" fill="#369881"/>
<path d="M135.969 248.176C135.71 247.276 135.195 244.521 134.968 243.614C132.841 243.581 130.714 243.549 128.583 243.516C128.397 244.347 127.967 247.183 127.688 247.981C126.78 250.554 120.31 249.533 120.363 246.83C120.444 242.447 124.848 227.148 126.695 219.997C127.368 217.4 128.138 216.181 131.881 216.181C135.284 216.181 136.034 217.809 136.804 220.175C139.368 228.092 142.435 240.004 143.355 246.911C143.748 249.853 136.646 250.558 135.965 248.176M133.226 236.454C132.728 234.344 132.23 232.229 131.723 230.118C131.209 232.213 130.706 234.311 130.212 236.41C131.217 236.426 132.221 236.438 133.226 236.454Z" fill="#369881"/>
<path d="M158.816 223.797H155.635C155.635 231.657 155.846 239.55 155.635 246.98C155.542 250.25 148.395 250.594 148.286 246.98C148.047 239.238 148.286 231.653 148.286 223.797H144.06C140.661 223.753 139.976 216.525 144.06 216.363C148.975 216.168 153.897 216.363 158.82 216.363C163.742 216.363 163.528 223.797 158.82 223.797" fill="#369881"/>
<path d="M172.254 246.921C172.161 250.413 165.014 250.413 164.901 246.921C164.617 238.105 164.901 227.615 164.901 218.795C165.355 215.149 172.161 215.481 172.254 218.795C172.502 227.611 172.489 238.105 172.254 246.921Z" fill="#369881"/>
<path d="M195.092 245.296C190.875 250.676 182.622 250.656 179.024 244.668C175.301 238.684 175.268 230.986 177.108 224.394C178.647 217.895 186.706 213.673 192.836 217.413C196.956 219.937 198.159 224.912 198.658 229.276C199.274 234.648 198.783 240.969 195.092 245.296ZM191.207 228.692C191.049 227.732 190.534 224.483 188.492 223.482C187.2 222.846 185.77 223.482 185.049 224.633C183.363 227.303 182.954 232.444 183.489 236.633C184.068 241.204 185.77 242.541 186.989 242.557C190.895 242.613 191.268 237.423 191.47 234.328C191.551 232.473 191.491 230.516 191.211 228.688M190.332 225.35C190.393 225.484 190.482 225.67 190.348 225.378C190.34 225.37 190.336 225.358 190.332 225.35Z" fill="#369881"/>
<path d="M223.377 245.195C223.336 246.82 223.142 247.439 222.943 247.841C222.263 249.202 221.035 249.571 218.734 249.571C217.089 249.571 216.137 248.521 215.796 247.841C214.346 244.936 211.417 238.06 209.764 234.3C209.764 238.781 209.869 242.894 209.764 246.994C209.67 250.567 202.524 250.567 202.414 246.994C202.131 237.971 202.418 227.757 202.755 218.56C202.868 215.509 210.015 215.854 210.805 218.082C212.296 222.284 214.233 226.319 216.027 230.399C216.027 226.323 215.914 222.632 216.027 218.901C216.137 215.169 223.284 215.513 223.377 218.901C223.604 227.222 223.624 235.933 223.377 245.203" fill="#369881"/>
<path d="M33.5096 197.547C33.4691 199.05 33.2908 199.625 33.1085 199.994C32.4765 201.254 31.3461 201.594 29.215 201.594C27.6916 201.594 26.8124 200.626 26.4964 199.994C25.1553 197.308 22.4489 190.947 20.9175 187.471C20.9175 191.616 21.0147 195.416 20.9175 199.208C20.8324 202.514 14.2203 202.514 14.119 199.208C13.8597 190.866 14.123 181.422 14.435 172.914C14.5403 170.094 21.1484 170.41 21.8817 172.472C23.2633 176.357 25.0541 180.089 26.7111 183.861C26.7111 180.093 26.6058 176.682 26.7111 173.226C26.8124 169.778 33.4245 170.094 33.5096 173.226C33.7203 180.924 33.7405 188.978 33.5096 197.547Z" fill="white"/>
<path d="M50.8504 200.308C50.6113 199.473 50.1373 196.925 49.9226 196.09C47.9535 196.062 45.9886 196.034 44.0195 196.001C43.8494 196.767 43.4523 199.388 43.189 200.13C42.3503 202.512 36.3702 201.568 36.4148 199.068C36.4918 195.013 40.5636 180.869 42.2733 174.253C42.8932 171.854 43.6063 170.724 47.0703 170.724C50.2183 170.724 50.9112 172.231 51.6202 174.419C53.9944 181.74 56.8264 192.756 57.6772 199.141C58.0418 201.86 51.4743 202.512 50.8463 200.312M48.3141 189.47C47.8523 187.517 47.3904 185.564 46.9245 183.612C46.4504 185.548 45.9845 187.489 45.5267 189.43C46.4545 189.442 47.3863 189.458 48.3141 189.47Z" fill="white"/>
<path d="M87.3388 198.86C87.2537 202.194 80.6416 202.51 80.5403 198.86C80.4106 194.286 80.5403 189.87 80.5403 184.866C79.337 186.957 78.0567 189.007 76.9668 191.17C76.2335 192.625 72.101 192.799 71.0962 191.17C69.6255 188.788 68.7706 187.123 67.4214 184.716C67.4214 190.048 67.2837 193.982 67.1905 198.864C67.1297 202.203 60.4366 202.81 60.392 198.864C60.2948 190.396 60.4933 174.093 61.1254 172.177C61.7331 170.333 67.4417 170.033 68.6815 172.497C70.3872 175.888 72.3319 179.044 74.1632 182.366C75.9742 179.315 78.1215 175.373 79.3897 172.756C80.678 170.09 86.1962 170.305 86.9336 172.181C87.5616 173.777 87.5494 190.396 87.3347 198.864" fill="white"/>
<path d="M98.1885 189.154C98.1885 192.727 98.2736 195.616 98.1885 198.894C98.1034 202.2 91.4913 202.512 91.39 198.894C91.151 190.552 91.8073 174.184 92.018 172.915C92.2246 171.676 93.6994 170.894 95.6441 170.772C101.251 170.412 107.231 169.784 109.958 177.121C112.531 184.037 104.829 190.049 98.1885 189.162M102.734 178.174C101.361 177.429 99.7119 177.336 98.1885 177.372V182.38C99.6916 182.469 102.187 182.376 103.139 181.424C103.767 180.796 104.083 178.908 102.734 178.174Z" fill="white"/>
<path d="M132.606 199.206C132.521 202.512 125.909 202.512 125.808 199.206C125.707 195.985 125.808 192.529 125.808 189.016H120.014C120.014 192.525 120.099 195.985 120.014 199.206C119.929 202.512 113.321 202.512 113.216 199.206C112.957 190.863 113.216 181.257 113.216 172.911C113.216 170.249 119.301 169.779 119.698 172.911C120.083 175.934 120.014 178.903 120.014 182.222H125.808C125.808 178.907 125.715 175.958 125.808 172.911C125.909 169.463 132.521 169.779 132.606 172.911C132.833 181.253 132.821 190.863 132.606 199.206Z" fill="white"/>
<path d="M149.939 200.308C149.7 199.473 149.226 196.925 149.011 196.09C147.042 196.062 145.077 196.034 143.108 196.001C142.938 196.767 142.541 199.388 142.277 200.13C141.435 202.512 135.455 201.568 135.503 199.068C135.58 195.013 139.648 180.869 141.362 174.253C141.982 171.854 142.695 170.724 146.159 170.724C149.307 170.724 150 172.231 150.709 174.419C153.083 181.74 155.915 192.756 156.77 199.141C157.134 201.86 150.567 202.512 149.939 200.312M147.403 189.47C146.941 187.517 146.479 185.564 146.013 183.612C145.539 185.548 145.073 187.489 144.615 189.43C145.547 189.442 146.475 189.458 147.403 189.47Z" fill="white"/>
<path d="M173.968 201.259C171.882 199.829 170.561 196.952 169.236 194.935C168.596 193.958 167.109 191.471 166.327 189.453V199.205C166.327 202.511 159.719 202.511 159.529 199.205C159.051 190.875 159.946 174.183 160.157 172.911C160.363 171.671 161.838 170.889 163.779 170.767C169.386 170.407 175.366 169.779 178.093 177.116C179.786 181.678 177.019 185.839 173.032 187.897C173.62 188.683 174.139 189.53 174.588 190.433C175.577 192.411 177.343 195.064 178.769 196.454C181.431 199.047 176.707 203.139 173.964 201.259M170.873 178.173C169.5 177.428 167.851 177.335 166.327 177.371V182.379C167.826 182.468 170.326 182.375 171.278 181.423C171.906 180.795 172.222 178.907 170.873 178.173Z" fill="white"/>
<path d="M209.407 198.86C209.322 202.194 202.709 202.51 202.608 198.86C202.479 194.286 202.608 189.87 202.608 184.866C201.405 186.957 200.125 189.007 199.035 191.17C198.301 192.625 194.169 192.799 193.164 191.17C191.693 188.788 190.838 187.123 189.489 184.716C189.489 190.048 189.352 193.982 189.258 198.864C189.198 202.203 182.505 202.81 182.46 198.864C182.363 190.396 182.561 174.093 183.189 172.177C183.797 170.333 189.506 170.033 190.745 172.497C192.451 175.888 194.4 179.044 196.227 182.366C198.038 179.315 200.185 175.373 201.453 172.756C202.742 170.09 208.26 170.305 208.997 172.181C209.629 173.777 209.617 190.396 209.399 198.864" fill="white"/>
<path d="M81.4799 325.733L77.3878 339.857H75.3216L72.0398 328.488L68.6325 339.857L66.5865 339.877L62.6362 325.733H64.6012L67.6804 337.71L71.0877 325.733H73.154L76.3952 337.669L79.4946 325.733H81.4799Z" fill="#369881"/>
<path d="M87.03 339.078C85.9482 338.462 85.0933 337.607 84.4653 336.505C83.8374 335.403 83.5254 334.164 83.5254 332.786C83.5254 331.409 83.8374 330.169 84.4653 329.067C85.0933 327.965 85.9482 327.11 87.03 326.494C88.1117 325.878 89.3069 325.57 90.6156 325.57C91.9242 325.57 93.1397 325.878 94.2214 326.494C95.3032 327.11 96.154 327.961 96.7739 329.059C97.3938 330.153 97.7057 331.396 97.7057 332.786C97.7057 334.176 97.3938 335.42 96.7739 336.513C96.154 337.607 95.3032 338.462 94.2214 339.078C93.1397 339.694 91.9364 340.002 90.6156 340.002C89.2948 340.002 88.1117 339.694 87.03 339.078ZM93.2815 337.713C94.0715 337.255 94.6914 336.599 95.1452 335.748C95.5989 334.897 95.8218 333.912 95.8218 332.79C95.8218 331.668 95.5949 330.667 95.1452 329.82C94.6914 328.978 94.0756 328.325 93.2896 327.863C92.5076 327.406 91.6163 327.175 90.6156 327.175C89.6148 327.175 88.7235 327.406 87.9416 327.863C87.1596 328.321 86.5397 328.974 86.086 329.82C85.6322 330.663 85.4093 331.656 85.4093 332.79C85.4093 333.925 85.6362 334.897 86.086 335.748C86.5397 336.599 87.1596 337.255 87.9497 337.713C88.7397 338.171 89.627 338.401 90.6156 338.401C91.6041 338.401 92.4874 338.171 93.2815 337.713Z" fill="#369881"/>
<path d="M116.007 326.809H108.896V331.428C109.208 330.994 109.666 330.642 110.274 330.362C110.881 330.087 111.538 329.945 112.239 329.945C113.361 329.945 114.273 330.176 114.973 330.646C115.674 331.112 116.181 331.712 116.485 332.449C116.789 333.186 116.942 333.964 116.942 334.791C116.942 335.763 116.76 336.634 116.396 337.404C116.031 338.174 115.476 338.782 114.722 339.227C113.973 339.673 113.045 339.896 111.935 339.896C110.517 339.896 109.366 339.531 108.491 338.802C107.612 338.072 107.081 337.1 106.891 335.885H108.694C108.868 336.654 109.241 337.254 109.808 337.688C110.375 338.121 111.092 338.336 111.955 338.336C113.021 338.336 113.827 338.016 114.366 337.372C114.905 336.731 115.176 335.881 115.176 334.827C115.176 333.774 114.905 332.959 114.366 332.384C113.827 331.809 113.029 331.525 111.975 331.525C111.258 331.525 110.634 331.699 110.099 332.044C109.565 332.388 109.18 332.858 108.933 333.45H107.19V325.185H116.003V326.805L116.007 326.809Z" fill="#369881"/>
<path d="M123.907 334.985C124.88 334.102 125.702 333.174 126.371 332.21C127.039 331.241 127.376 330.293 127.376 329.361C127.376 328.482 127.161 327.789 126.735 327.283C126.31 326.777 125.625 326.521 124.677 326.521C123.729 326.521 123.044 326.809 122.538 327.384C122.032 327.96 121.756 328.725 121.716 329.686H119.933C119.986 328.17 120.447 327.003 121.31 326.181C122.173 325.359 123.288 324.945 124.653 324.945C126.018 324.945 127.149 325.33 127.967 326.1C128.785 326.87 129.195 327.931 129.195 329.28C129.195 330.403 128.858 331.493 128.19 332.554C127.521 333.616 126.76 334.547 125.909 335.35C125.058 336.152 123.972 337.088 122.647 338.153H129.616V339.693H119.872V338.376C121.586 336.999 122.931 335.868 123.903 334.981" fill="#369881"/>
<path d="M136.264 334.985C137.237 334.102 138.059 333.174 138.728 332.21C139.396 331.241 139.732 330.293 139.732 329.361C139.732 328.482 139.518 327.789 139.092 327.283C138.667 326.777 137.982 326.521 137.034 326.521C136.086 326.521 135.401 326.809 134.895 327.384C134.388 327.96 134.113 328.725 134.072 329.686H132.29C132.342 328.17 132.804 327.003 133.667 326.181C134.53 325.359 135.644 324.945 137.01 324.945C138.375 324.945 139.506 325.33 140.324 326.1C141.142 326.87 141.552 327.931 141.552 329.28C141.552 330.403 141.215 331.493 140.547 332.554C139.878 333.616 139.117 334.547 138.266 335.35C137.415 336.152 136.329 337.088 135.004 338.153H141.973V339.693H132.229V338.376C133.943 336.999 135.288 335.868 136.26 334.981" fill="#369881"/>
</g>
<defs>
<clipPath id="clip0_56_392">
<rect width="223.559" height="340" fill="white"/>
</clipPath>
</defs>
</svg>
